<svg xmlns="http://www.w3.org/2000/svg" viewBox="0 0 27 47.17"><defs><style>.cls-1{fill:none;stroke:#fff;stroke-linecap:round;stroke-linejoin:round;stroke-width:1.5px;}</style></defs><title>banner-britain-icon</title><g id="Layer_1" data-name="Layer 1"><path class="cls-1" d="M18.62,26.71c.05,0,.05,0-.05.13s-.19,0-.35-.06-.32.23-.4.09.1-.12.19-.11.41-.17.61-.06ZM9.82,1.1c0,.09.14.26,0,.33s-.52-.12-.67-.1-.37.24-.54.22a1.73,1.73,0,0,0-.62,0c-.11,0-.52.19-.6.1l-.05-.05c-.09.08-.34.24-.38.3A.39.39,0,0,0,7,1.46c-.13-.11-.2-.1-.33,0s-.15.41-.25.47-.11,0-.05,0a.47.47,0,0,0,0-.42c-.07-.17-.12,0-.26-.08s-.27-.37-.53-.32-.18.25-.24.35-.21.46,0,.62-.09.16-.24.1c-.12.13-.29.33-.13.5s.23.26.06.32-.36.12-.47.05c-.62-.4,0,.59,0,.66A.26.26,0,0,1,4.59,4s0,0-.14,0-.31-.16-.27.13c0,.07,0,.28,0,.34s.72.1.57.36-.56,0-.75.15a.31.31,0,0,0-.27-.16c-.16,0-.2.27-.25.4a.31.31,0,0,0-.41-.09.69.69,0,0,0,0,.61c.08.08.26,0,.31.13S3.11,6,3,6.07s.21.34.31.43.44.44.06.32c-.15-.05-.39-.43-.52-.21s.07.72,0,1c.09,0,.32,0,.38.07S3,8,3.2,8.15a1.27,1.27,0,0,1,.23.44c0,.11.37.43.37.49s-.29-.14-.29-.14c-.17-.1-.37,0-.56,0s-.14,0,0,.19.35.2.56.3,0,.18-.09.18-.17-.1-.21-.13-.28-.31-.42-.32,0,.18,0,.22a3.67,3.67,0,0,1-.24.51c.07.15.18.14.3.23s-.11.07-.15.08-.08.26-.09.33a.11.11,0,0,0,.11.08s0,0,0,.07-.3,0-.37,0-.47-.07-.66,0,0,.36.17.38a1.78,1.78,0,0,1,.43.08s-.08.25-.08.31c0,.22,0,.32.15.36s.2,0,.33.1.2.15.31.09a8.54,8.54,0,0,0,.95-.78,1.17,1.17,0,0,1,.42-.3c.16,0,.24-.45.37-.45-.12,0-.21.59-.29.65a2,2,0,0,0-.57.75c-.06.12-.08.35-.18.42a1.74,1.74,0,0,0-.43.6c-.08.18-.35.79,0,.78.07.41.12.59-.15.89s-.24,1.2.09,1.3c-.43.51-.35,1.05-.59,1.64,0,.11-.29.75-.16.8a1.21,1.21,0,0,0,.8-.1c.06-.33-.05-.49.07-.8a4.71,4.71,0,0,1,.27-.64c.09-.16,0-.33.06-.51s.24-.2.29-.37a1.86,1.86,0,0,0,.08-.45c-.29,0-.27-.57-.28-.75.18,0,1-1.06,1-1s-.54.57-.61.66-.34.82-.2,1,.25-.25.42-.2.59.67.72,0c0-.21.07-.41.1-.62s.07-.59.09-.53l0,.07a.61.61,0,0,1,.38-.29c.23-.09.2,0,0,.23l-.14.11a1,1,0,0,0,.07.55c0,.06.52.41.51.45A2.68,2.68,0,0,0,5.23,15a4.59,4.59,0,0,0,0,.6c0,.3-.23.75,0,1s.43.16.55.36a.84.84,0,0,1,0,.61c-.07.12-.18.07-.26.16a1,1,0,0,0-.16.29c-.12.29-.2.59-.35.87s-.28.32-.39.5a7.37,7.37,0,0,0-.17.85c-.1,0-.15-.37-.31-.22s.06.72.14.88.25.27.3.45,0,.42.26.41,0-.43-.08-.53.07-.42.23-.5.24-.07.28,0,.38.29.49.41.37.5.58.5.16-.45.16-.53a.92.92,0,0,0-.06-.36c-.06-.11,0-.26,0-.3s0,.16.05.23c.51-.05.75.91,1.05.24.56.46.55-.37,1-.24l.21,0c.37,0,0-.45.28-.57s.71.16,1,.11h.06c0,.07-.19.14-.23.22s0,.07-.24.18-.21.29-.25.46-.14.23-.27.39-.14.77-.37,1.11c.14.29.42.49.57.78a.52.52,0,0,1,0,.5l.29.3c.07,0,.29-.13.32-.09S9.51,25,10,25c.25,0,.34-1,.69-.58.1,0,.5-.2.49-.24s-.12.17-.16.2.21.28.18.4c-.07.29-.41.08-.42.46,0,.07.12.26.07.29s-.46,0-.48.19-.21.84.08.91l.31.09a2,2,0,0,0-.5.63.88.88,0,0,0,0,.58c.06.13.19.23,0,.29s-.31.08-.37.24.3.34.27.47-.66-.29-.73-.35a6.29,6.29,0,0,1-.72.24,1.46,1.46,0,0,1-.37,0c-.06,0-.36-.14-.38-.12a.66.66,0,0,1-.63.34,1,1,0,0,0-.9.41c-.1.2,0,.41-.06.62s-.69.43-1,.61A.59.59,0,0,0,5,31.1s-.18.48-.23.42l.06,0c.24.07.34-.32.56-.18s.34.37.38,0,0-.27.13-.36a.75.75,0,0,1,.53-.18c.46,0,.41.18.44.54,0,.19.23.27.23.45s-.25.36-.25.56.17.27.2.41-.06.26-.09.36a2.93,2.93,0,0,1-.42,1.11c-.06.07-.08.08-.12.06-.4-.25-1,.88-1.33.44,0,0-.39.4-.47.45a5,5,0,0,1-.57.21l0-.06c-.09-.11-.23-.14-.29-.07s0,.29-.19.37-.6.14-.58.36.49.11.61.24-.26.45-.46.45c-.58,0,.35.34.42.4s.12.32.24.41a.48.48,0,0,0,.54,0,4.11,4.11,0,0,1,.47-.17c.1,0,.1-.28.14-.38s.42,0,.54,0,.42-.27.49-.17,0,.2-.06.26.23.31.39.28-.12.25-.12.27.09.21.18.27.33-.06.49,0,.51-.26.76-.32c0,0,.07,0,.12,0,.2.19.12.53.3.72s.22,0,.31,0,.14.29.29.36a1.89,1.89,0,0,0,1.14.06c.22-.09.3-.33.41-.52s.48-.23.61-.3a2.37,2.37,0,0,1,.7-.26,2.88,2.88,0,0,1,.65-.93c.14-.1.14,0,0,.2s-.32.33-.45.52-.13.57-.28.64a1.54,1.54,0,0,0-.53.39.71.71,0,0,1-.41.28c0,.26,0,.77-.28.9s-.36,0-.51.06a2.24,2.24,0,0,1-.54.09c-.25,0-.31-.24-.58-.26a4.75,4.75,0,0,0-1.08-.06c-.24,0-.9,0-1.08.18s.13.67-.11.92-.9-.33-1.1.14.06.81-.11,1.17c-.09.21-.26.28-.44.38s-.21.35-.36.48-.34,0-.49.09-.12.61-.36.81a.36.36,0,0,1-.32,0c-.14.56-.62.77-1.05,1.09,0,0-.21-.16-.26-.17a.63.63,0,0,0-.57.31,1.51,1.51,0,0,0,0,.66,1.82,1.82,0,0,0,.51-.08.51.51,0,0,0,.11-.16c.18-.33.49,0,.74.08.06.26.1.7.42.52s.36-.3.29-.73a5.55,5.55,0,0,1,.47-.36c.13-.08.46-.06.52-.15s-.06-.3,0-.44.32,0,.46,0a.93.93,0,0,0,.43-.12c.5-.24.65-.34,1,.14l.12-.07c.23-.15.12.1.31.16a.57.57,0,0,0,.52-.1c.14-.09.13.36.18.42a.6.6,0,0,0,.41.19A.3.3,0,0,0,8,44.89c.3-.21.18-.49.56-.61.14-.05.15-.18,0-.32l-.1-.1c.14-.21.11-.47.23-.68s.23-.25.2-.5l.08,0c.36.15.65-.28,1-.29s.22.06.4-.05a.79.79,0,0,1,.6,0,2.35,2.35,0,0,1,.91.59c.09.07.12.29.25.29s.08-.35.18-.45,1,.17,1.11.28c.11,0,.44-.1.42-.26s0-.11,0-.21-.35,0-.38-.18.05-.16.11-.14a.54.54,0,0,1,.17.13,4.39,4.39,0,0,1,1.54-.12c.16-.13.37-.17.53-.3s.09-.19.14-.25.28.18.32.24.4,0,.59,0a1.11,1.11,0,0,1,.72.15,4,4,0,0,1,3.23-.1c.55.23.7-.64,1.21-.51.17.05.41-.22.55-.3a1,1,0,0,1,.8-.19,2.2,2.2,0,0,1,.43-.71,7.09,7.09,0,0,1,.88-.45c.35-.14.15-.47.07-.73s.24-.49.13-.57-.39,0-.56,0a2.33,2.33,0,0,0-.71.08.81.81,0,0,1-1-.12c-.1.07-.28.15-.39.07s0,0,0-.08.44-.07.38-.23a1.6,1.6,0,0,0-.47-.21c-.24-.06-.38.24-.59.24s.18-.31.18-.31.28,0,.41-.12.12-.25.26-.25.34.23.59,0a.68.68,0,0,0,.25-.54c0-.23,0-.26-.21-.22l-.27.07c-.16,0-.21,0-.14-.06s.36,0,.45-.33.42,0,.67,0c.41,0,.61-.6.4-.9s-.17.09-.3.17a.69.69,0,0,1-.38,0,1.36,1.36,0,0,0,.4-.2s.12-.13.08-.19-.12-.12-.07-.15.2.26.31.25h.32a1.55,1.55,0,0,1,.22-.33c.11-.12.47-.29.52-.42s0-.56,0-.81.21-.47.25-.73a6.27,6.27,0,0,0-.05-1.67,4.72,4.72,0,0,0-1.45-1.07c-.31-.14-.82,0-1-.23a3.78,3.78,0,0,1-1.19.11c-.24,0-.26-.09-.33.19s-.07.53-.32.68-.3,0-.44-.12-.55-.4-.55-.42c.11-.47.64-.63.93-.95-.2-.57-.23-1.55-.8-1.89-.29-.17-.74-.33-.92-.64a4.06,4.06,0,0,0-.35-.48c-.08-.09-.34-.05-.25-.09.27-.12.46.2.63.38.11,0,.93,0,.93.08,0-.81-1.11-1.3-1.15-2.13,0-.08,0-.25.08-.29s.41-.18.15-.23a1.31,1.31,0,0,1-.82-.72c-.1-.2-.2-.63-.36-.78a3.42,3.42,0,0,0-.92-.68c-.34-.15-.74-.11-1.08-.24-.11,0-.19-.34-.26-.45a4.29,4.29,0,0,1-.33-.74c-.22-.6-.35-1.24-.59-1.84a1.48,1.48,0,0,1-.09-.64c0-.11-.07-.19-.08-.29s.07-.24,0-.38-.11-.65-.22-.68-.44-.24-.45-.42-.18,0-.25-.09-.16-.25-.24-.36-.21-.24-.28-.38-.15-.45-.35-.53-.29.09-.45,0-.14-.27-.33-.33-.43,0-.5-.28l0-.09c-.2,0-.54-.06-.71.05s0,.17-.09.24a1.1,1.1,0,0,1-.5.27c-.14,0-.24-.13-.32-.22a1.5,1.5,0,0,1-.61-.08c-.24-.09-.59.11-.78-.1,0-.05-.05-.06,0-.11a.2.2,0,0,1,.11-.07c.1,0,.29.11.39.14a.68.68,0,0,0,.48,0c.19-.05.37-.05.48-.23s.19-.47.39-.56.41.11.65,0,.54-.23.56-.36-.38-.41-.55-.42,0-.26-.07-.39-.14-.32-.14-.18S10,13,10,13s.45-.11.54-.25.26-.32.41-.33.39.1.59,0,.65-.26.77-.58a.31.31,0,0,0,0-.3c-.06-.12,0-.1.06-.2a.79.79,0,0,1,.37-.51,1.48,1.48,0,0,0,.43-.62c0-.11,0-.21,0-.31a2.13,2.13,0,0,1,.19-.35c.24-.53.09-1,.46-1.49.19-.24.58-.62.55-1a1.55,1.55,0,0,0-.57-.88,6,6,0,0,1-1.27,0c-.32,0-.61,0-.92-.06a5.7,5.7,0,0,0-1,.16c-.31,0-.54-.35-.83-.38s-.28.12-.36.26a1.1,1.1,0,0,1-.12.2c-.11.11-.24-.06-.34,0s-.29.27-.53.29H8.07A6.14,6.14,0,0,1,7.64,7a1.57,1.57,0,0,1-.56.06c0-.06.22-.06.27-.07s0-.18.09-.23c.16-.21.42-.3.53-.55a1.76,1.76,0,0,0-.5,0,3.62,3.62,0,0,0-.6.4c-.1-.1.34-.5.41-.55s.24.06.41-.08S8,5.75,8.13,6l0,.08c.09-.09.61-.6.51-.69s-.66.32-.82.07a.09.09,0,0,1,0-.12c0-.08.33-.18.27-.27s.17-.43.33-.51.19-.24.34-.32a2.88,2.88,0,0,0,1.12-1c.11-.17.34-.14.47-.32a2.36,2.36,0,0,0,.49-.78c0-.23-.24-.07-.24-.22s.45-.67.2-.76-1,0-1,0Z"/></g></svg>