<?xml version="1.0" encoding="utf-8"?>
<!-- Generator: Adobe Illustrator 20.1.0, SVG Export Plug-In . SVG Version: 6.00 Build 0)  -->
<svg version="1.1" id="Layer_1" xmlns="http://www.w3.org/2000/svg" xmlns:xlink="http://www.w3.org/1999/xlink" x="0px" y="0px"
	 viewBox="0 0 47.6 43.9" style="enable-background:new 0 0 47.6 43.9;" xml:space="preserve">
<style type="text/css">
	.st0{fill:none;stroke:#FFFFFF;stroke-width:1.5;stroke-linecap:round;stroke-linejoin:round;stroke-miterlimit:10;}
	.st1{fill:#FFFFFF;}
	.st2{fill:#FFFFFF;stroke:#FFFFFF;stroke-width:1.5;stroke-linecap:round;stroke-linejoin:round;stroke-miterlimit:10;}
</style>
<title>banner-new-icon</title>
<path class="st0" d="M34.3,30.2c0,0,4.3-0.3,7-1.7c2.7-1.4,0.2-5,0.2-5s-0.2,0.9-0.9,0.9C39.3,24.4,34.3,30.2,34.3,30.2z"/>
<path class="st0" d="M12.9,30.2c0,0-4.3-0.3-7-1.7c-2.7-1.4-0.2-5-0.2-5s0.2,0.9,0.9,0.9C7.8,24.4,12.9,30.2,12.9,30.2z"/>
<path class="st0" d="M5.9,23c0,0-1-1.2-1-2c0-0.8-0.2-1.4-0.9-1.4c-2.6,0-3.2,1-3.2,1.6c0,0.4,1,1.2,2.2,1.2l1.3,2.7"/>
<path class="st0" d="M41.1,22.9c0,0,1-1,1-1.8c0-0.8,0.2-1.4,0.9-1.4c2.6,0,3.2,1,3.2,1.6c0,0.4-1,1.2-2.2,1.2l-1.3,2.6"/>
<ellipse class="st1" cx="24.2" cy="30.9" rx="2.5" ry="0.9"/>
<circle class="st0" cx="8.8" cy="36.9" r="1.1"/>
<circle class="st0" cx="39.6" cy="36.9" r="1.1"/>
<path class="st0" d="M39.7,20.4c0,0-0.4,2.3-3.8,2.3c-3.4,0-12.3,0-12.3,0s-8.9,0-12.3,0s-3.8-2.3-3.8-2.3"/>
<path class="st0" d="M23.6,10.8c-5.4,0-10.8,0.7-10.8,0.7S9,15.4,7.6,19.7c-0.7,1.9-2.1,3.9-2.5,4.5s-1.3,1.6-1.3,1.6
	s-1.1,3.7-1,6.1c0.1,1.5,0.4,3.4,0.4,4.7c0,0.8-0.3,1.4-0.3,1.6c0,0.7,0.5,1.6,9.3,1.9c0.4,0,0.8,0,1.2-0.2h0
	c1.1-0.4,2.2-0.5,3.4-0.5h13.6c1.1,0,2.3,0.2,3.4,0.5l0.1,0c0.4,0.1,0.8,0.2,1.2,0.2c8.9-0.3,9.3-1.2,9.3-1.9c0-0.3-0.3-0.9-0.3-1.6
	c0-1.3,0.3-3.2,0.4-4.7c0.1-2.4-1-6.1-1-6.1s-0.9-0.9-1.3-1.6c-0.4-0.7-1.8-2.6-2.5-4.5c-1.4-4.2-5.2-8.2-5.2-8.2S29,10.8,23.6,10.8
	"/>
<g>
	<polyline class="st0" points="42.9,41 42.9,42.9 37.4,43 37.3,41.6 	"/>
</g>
<g>
	<polyline class="st0" points="5.5,41 5.5,42.9 11,43 11.1,41.6 	"/>
</g>
<path class="st0" d="M33.4,37.7c0-1.2-2.9-4.1-4.6-4.1c-0.5,0-8.8,0-9.3,0c-1.7,0-4.6,2.9-4.6,4.1c0,0.4,5,0.7,9.5,0.7
	C28.8,38.3,33.4,38.1,33.4,37.7z"/>
<line class="st2" x1="23.6" y1="10.8" x2="23.6" y2="8.6"/>
<path class="st2" d="M36.4,14.7c0,0-4.8-1.3-12.8-1.3s-12.8,1.3-12.8,1.3"/>
<polygon class="st1" points="40.5,7.2 45.4,6.1 40.5,4.9 39.3,0 38.2,4.9 33.2,6.1 38.2,7.2 39.3,12.2 "/>
<polygon class="st1" points="45.5,13 47.6,12.5 45.5,12 45,9.9 44.5,12 42.4,12.5 44.5,13 45,15.1 "/>
<polygon class="st1" points="3.9,11.6 6,11.1 3.9,10.6 3.4,8.4 2.9,10.6 0.7,11.1 2.9,11.6 3.4,13.7 "/>
</svg>
