<svg id="Layer_1" data-name="Layer 1" xmlns="http://www.w3.org/2000/svg" viewBox="0 0 51.33 35.97"><defs><style>.cls-1{fill:none;}.cls-2{fill:#fff;}</style></defs><title>banner-manufacturer-icon</title><path class="cls-1" d="M11.39,29.39a.37.37,0,0,0,.37-.35,2.5,2.5,0,0,1-.58.07l-.14,0A.37.37,0,0,0,11.39,29.39Z"/><path class="cls-1" d="M20.4,6.51l.28.1c1.73-.15,3.74-.26,6-.26A58.27,58.27,0,0,1,38.33,7.4c-.55-.7-1-1.23-1.24-1.49A94.67,94.67,0,0,0,26.7,5.25c-2.7,0-5.41.18-7.43.36A1.78,1.78,0,0,0,20.4,6.51Z"/><path class="cls-1" d="M22.26,15.53H38.95c2.45,0,3-1.32,3.06-1.59s-.1-.24-.14-.37a19.12,19.12,0,0,0-2.28-4.43.74.74,0,0,1-.19,0l-.2,0a51.77,51.77,0,0,0-12.5-1.3c-1.7,0-3.24.06-4.62.16a2.48,2.48,0,0,1,.18.92Z"/><circle class="cls-1" cx="42.01" cy="29.02" r="0.37"/><path class="cls-1" d="M13.14,28.37a1.85,1.85,0,0,1,.12.65,1.87,1.87,0,1,1-3.74,0,1.85,1.85,0,0,1,.06-.44c-.76-.42-1.7-1-2.7-1.69,0,.25,0,.49.08.74.1.9.19,1.76.19,2.5a5.07,5.07,0,0,1-.22,1.41,2.18,2.18,0,0,0-.06.24c.14.18,1.19.86,8.54,1.09a2.75,2.75,0,0,0,1-.13A11.86,11.86,0,0,1,20,32.18H33.43a11.85,11.85,0,0,1,3.56.55,3,3,0,0,0,1,.15c7.36-.23,8.41-.91,8.56-1.11,0,0,0-.12-.07-.22a5.1,5.1,0,0,1-.22-1.41c0-.74.1-1.59.19-2.5.08-.74.16-1.5.19-2.19a16.83,16.83,0,0,0-.55-4.11,3,3,0,0,1-1.41,1.41,22.65,22.65,0,0,1-7.29,1.78h-.05a.75.75,0,0,1-.57-1.24c2-2.24,5.44-6,6.88-6a.3.3,0,0,0,.07-.08c-.3-.47-.64-1-1-1.65A4.74,4.74,0,0,1,38.95,17H22.26v.15C22.26,22.22,16.86,26.22,13.14,28.37ZM42,27.15A1.87,1.87,0,1,1,40.14,29,1.87,1.87,0,0,1,42,27.15Zm-5.42,2.63c0,.74,0,1.39-9.67,1.41h-.35c-5.81,0-9-.28-9.58-.82a.92.92,0,0,1-.25-.59C16.74,28.16,20,25,22.05,25h9.23C33.36,25,36.59,28.16,36.59,29.78Zm-9.93-7.61c1.36,0,2.46.4,2.46.89s-1.1.89-2.46.89-2.46-.4-2.46-.89S25.31,22.16,26.67,22.16Z"/><path class="cls-1" d="M46.05,14.09s-.11.1-.11.61a3.3,3.3,0,0,1-.83,1.87l.09.13h0l.16.24,0,0,.23.35.74-1.53A.75.75,0,0,1,47,15.4a2.08,2.08,0,0,0,1.42-.58C48.34,14.56,47.79,14.09,46.05,14.09Z"/><path class="cls-1" d="M40.5,34.33l4-.11V33.9c-1,.15-2.34.27-4,.36Z"/><path class="cls-1" d="M8.81,34.22l4,.11v-.07c-1.68-.09-3-.21-4-.37Z"/><path class="cls-2" d="M50,14.9c0-.39-.19-2.31-3.91-2.31-.6,0-1.61.27-1.61,2.11a1.15,1.15,0,0,1-.19.47,12.91,12.91,0,0,1-1-2.07A26.52,26.52,0,0,0,38,4.68a.75.75,0,0,0-.45-.23,98.33,98.33,0,0,0-10.1-.7V2.32a.75.75,0,1,0-1.5,0V3.75c-2.69,0-5.32.22-7.23.4a2.48,2.48,0,0,1,.37.93,1.77,1.77,0,0,0,.18.52c2-.18,4.73-.36,7.43-.36a94.67,94.67,0,0,1,10.39.66c.24.26.7.79,1.24,1.49A58.27,58.27,0,0,0,26.7,6.35c-2.29,0-4.3.11-6,.26A2.49,2.49,0,0,1,22.08,8c1.39-.1,2.93-.16,4.62-.16a51.77,51.77,0,0,1,12.5,1.3l.2,0a.74.74,0,0,0,.19,0,19.12,19.12,0,0,1,2.28,4.43c0,.12.09.24.14.37s-.61,1.59-3.06,1.59H22.26V17H38.95a4.74,4.74,0,0,0,3.81-1.46c.33.62.68,1.18,1,1.65a.3.3,0,0,1-.07.08c-1.45,0-4.93,3.75-6.88,6a.75.75,0,0,0,.57,1.24h.05a22.65,22.65,0,0,0,7.29-1.78,3,3,0,0,0,1.41-1.41,16.83,16.83,0,0,1,.55,4.11c0,.68-.11,1.45-.19,2.19-.1.9-.19,1.76-.19,2.5a5.1,5.1,0,0,0,.22,1.41c0,.1.05.18.07.22-.15.2-1.2.88-8.56,1.11a3,3,0,0,1-1-.15,11.85,11.85,0,0,0-3.56-.55H20a11.86,11.86,0,0,0-3.61.56,2.75,2.75,0,0,1-1,.13C8.05,32.64,7,32,6.86,31.78a2.18,2.18,0,0,1,.06-.24,5.07,5.07,0,0,0,.22-1.41c0-.74-.1-1.6-.19-2.5,0-.25-.05-.49-.08-.74-.53-.37-1.06-.77-1.6-1.2,0,.68.11,1.4.18,2.1.09.87.18,1.69.18,2.35a3.66,3.66,0,0,1-.17,1,2.31,2.31,0,0,0-.11.61c0,.81.41,1.41,2,1.84l0,1.34A.75.75,0,0,0,8,35.7l5.52.15h0a.75.75,0,0,0,.75-.73l0-.79,1,0a4.39,4.39,0,0,0,1.46-.2A10.37,10.37,0,0,1,20,33.68H33.43a10.5,10.5,0,0,1,3.17.5,4.39,4.39,0,0,0,1.3.2H38l1,0,0,.79a.75.75,0,0,0,.75.73h0l5.52-.15a.75.75,0,0,0,.73-.77l0-1.32c1.62-.43,2-1,2-1.86a2.31,2.31,0,0,0-.11-.61,3.66,3.66,0,0,1-.17-1c0-.67.09-1.48.18-2.35s.16-1.55.19-2.28a23.45,23.45,0,0,0-1.06-6.3.75.75,0,0,0-.19-.31l-.25-.26.86-1.78C48.79,16.67,50,15.78,50,14.9ZM12.83,34.33l-4-.11v-.33c1,.16,2.34.28,4,.37Zm31.69-.11-4,.11v-.07c1.67-.09,3-.21,4-.36Zm1.82-18.4-.74,1.53L45.38,17l0,0-.16-.24h0l-.09-.13a3.3,3.3,0,0,0,.83-1.87c0-.51.09-.63.11-.61,1.74,0,2.29.47,2.39.73A2.08,2.08,0,0,1,47,15.4.75.75,0,0,0,46.34,15.82Z"/><ellipse class="cls-2" cx="26.67" cy="23.05" rx="2.46" ry="0.89"/><path class="cls-2" d="M11.39,30.89A1.87,1.87,0,0,0,13.27,29a1.85,1.85,0,0,0-.12-.65l-.76.43a2.5,2.5,0,0,1-.62.24.37.37,0,0,1-.37.35.37.37,0,0,1-.36-.3,2.49,2.49,0,0,1-1-.28l-.42-.23a1.85,1.85,0,0,0-.06.44A1.87,1.87,0,0,0,11.39,30.89Z"/><path class="cls-2" d="M42,30.89A1.87,1.87,0,1,0,40.14,29,1.87,1.87,0,0,0,42,30.89Zm0-2.24a.37.37,0,1,1-.37.37A.37.37,0,0,1,42,28.65Z"/><path class="cls-2" d="M16.74,29.78a.92.92,0,0,0,.25.59c.54.54,3.77.82,9.58.82h.35c9.67,0,9.67-.66,9.67-1.41,0-1.61-3.23-4.81-5.31-4.81H22.05C20,25,16.74,28.16,16.74,29.78Z"/><path class="cls-2" d="M10.71,27.49a1,1,0,0,0,1,0c2.74-1.5,9.1-5.51,9.1-10.31V8.93A1,1,0,0,0,20,8a3.29,3.29,0,0,1-2.4-2.63,1,1,0,0,0-1-.83H5.74a1,1,0,0,0-1,.83A3.29,3.29,0,0,1,2.35,8a1,1,0,0,0-.75,1v8.25C1.61,22.2,8.57,26.34,10.71,27.49Zm5.15-21a5.3,5.3,0,0,0,2.91,3.14v7.54c0,2.92-3.83,6.14-7.58,8.28-2-1.14-7.57-4.63-7.57-8.28V9.64A5.3,5.3,0,0,0,6.51,6.5Z"/><path class="cls-2" d="M14.95,11.27c-2.3.81-4.67,4.25-5.81,6.11L7.8,16a1,1,0,0,0-1.41,1.41l2.25,2.25a1,1,0,0,0,.71.29h.14a1,1,0,0,0,.74-.51c1.17-2.12,3.67-5.72,5.4-6.33a1,1,0,1,0-.66-1.89Z"/></svg>