<svg xmlns="http://www.w3.org/2000/svg" viewBox="0 0 138.1 58.8"><defs><style>.cls-1{fill:#fff;}</style></defs><title>bvrla-leasing-logo</title><g id="Layer_1" data-name="Layer 1"><path class="cls-1" d="M21,46.52h7.64c3.33,0,11.57,0,13.07-7.27,1.07-5.16-2-6.66-4.76-7.23l0-.08c2.12-.65,5.33-2.19,6.15-6.17,1.13-5.48-3.6-6.58-8.27-6.58H22.74l-.18.89c3.65.61,3.73.61,2.9,4.63Zm9.28-23.31c.41-2,1.13-2.11,3.56-2.11,3.7,0,5.52,1.22,4.76,4.87-.83,4-3.74,5.16-7.24,5.16H28.6ZM28.2,33h3.7c3.57,0,6.28,1.42,5.45,5.44s-3.17,6.13-7.64,6.13c-2.23,0-3.9,0-3.55-1.66Z"/><path class="cls-1" d="M49.16,46.52h3.53L68.24,19.19H65.6L53.25,41.45h-.08L49.8,19.19H41.92l-.18.89c3.12.61,3.49.61,4,4.3Z"/><path class="cls-1" d="M64.43,46.52H68.9l2.61-12.63H74l4.58,12.63h4.67L78.56,33.16c3.32-.53,6.64-2.07,7.6-6.7,1.5-7.27-6.91-7.27-10-7.27h-10l-.18.89c3.65.61,3.73.61,2.9,4.63Zm9-21.77c.6-2.92.75-3.65,3.47-3.65,3.41,0,5.68,1.22,4.77,5.6C80.7,31.25,76.86,32,74.22,32H71.9Z"/><path class="cls-1" d="M85.05,46.52h16l1.82-5.89-.57-.09c-1.92,3.67-3.63,4.07-6.18,4.07H92.64c-2.72,0-2.72,0-2.09-3l4.71-22.82-8.72.93-.18.89c3.83.53,3.94.57,3.24,4Z"/><path class="cls-1" d="M98.87,46.52h2.52l4.79-8.45h10.36l1.3,8.45h4.22l-4.27-27.33h-7.64l-.18.89c1.57.24,3.07.29,2.73,1.91a20.44,20.44,0,0,1-1.18,2.4Zm15.19-22.22,2.18,11.86h-9Z"/><path class="cls-1" d="M30.77,16.82S45.31,12,56.58,9.43C67,7.05,84.64,4.31,98.14,4.73S125.89,5.8,134,11.46C140.82,16.22,138.2,22,133,25.39a49.72,49.72,0,0,1-11.26,5.25s5.84-2.3,7.06-4.94c1.69-3.65,1.95-9-9.2-12.31A103.48,103.48,0,0,0,88,9.21c-3.12.11-15.78.73-27.41,2.25-14.79,1.93-29.78,5.36-29.78,5.36"/><path class="cls-1" d="M21.54,33.5S12.62,32.85,9.83,32C6.69,31,1.18,28.53.27,25s.52-6.49,4.2-9.64S14.91,8.52,28.19,5A119,119,0,0,1,59.63,1.23c6.43.14,13.24,1,13.24,1s-14.94.16-22.65,1.22a93.41,93.41,0,0,0-28.31,8.11c-7.78,3.75-10.72,6.43-12,8.57s-2.37,5.73,1,9c3.67,3.58,10.64,4.36,10.64,4.36"/><path class="cls-1" d="M19.25,56.12l1.26-6h1.24l-1,5h3.07l-.21,1Z"/><path class="cls-1" d="M28.9,54.3h-3s0,.08,0,.11a1,1,0,0,0,.25.7.8.8,0,0,0,.61.27,1,1,0,0,0,.92-.61l1.06.18a2.23,2.23,0,0,1-.83,1,2.16,2.16,0,0,1-1.16.32,1.93,1.93,0,0,1-1.43-.56,2,2,0,0,1-.55-1.48,2.69,2.69,0,0,1,.5-1.6,2.24,2.24,0,0,1,1.94-.95,1.68,1.68,0,0,1,1.28.5A1.93,1.93,0,0,1,29,53.53,3.31,3.31,0,0,1,28.9,54.3Zm-1-.72c0-.05,0-.09,0-.12a1.06,1.06,0,0,0-.22-.73.75.75,0,0,0-.58-.24.93.93,0,0,0-.66.28,1.47,1.47,0,0,0-.39.82Z"/><path class="cls-1" d="M31.27,53l-1.15-.1A1.74,1.74,0,0,1,30.8,52a2.31,2.31,0,0,1,1.3-.33,1.91,1.91,0,0,1,1.25.34,1,1,0,0,1,.4.83,2.71,2.71,0,0,1,0,.42c0,.15-.11.54-.25,1.17a6,6,0,0,0-.17,1.1,2.24,2.24,0,0,0,.1.62H32.26a2.25,2.25,0,0,1-.09-.49,1.81,1.81,0,0,1-.6.44,1.62,1.62,0,0,1-.68.15,1.21,1.21,0,0,1-.9-.36,1.25,1.25,0,0,1-.35-.92,1.33,1.33,0,0,1,.39-1,2.27,2.27,0,0,1,1.39-.45,5.53,5.53,0,0,0,1.13-.17,1.48,1.48,0,0,0,.07-.4.4.4,0,0,0-.15-.32.69.69,0,0,0-.45-.13.85.85,0,0,0-.5.13A.65.65,0,0,0,31.27,53Zm1.12,1.1-.28.05a2.69,2.69,0,0,0-1.16.31.48.48,0,0,0-.19.4.46.46,0,0,0,.15.35.54.54,0,0,0,.39.14,1,1,0,0,0,.5-.13.9.9,0,0,0,.35-.33,2.28,2.28,0,0,0,.21-.64Z"/><path class="cls-1" d="M34.41,54.9l1.14-.18a.93.93,0,0,0,1,.66,1.06,1.06,0,0,0,.65-.18.36.36,0,0,0,.17-.3.31.31,0,0,0-.09-.21,1.48,1.48,0,0,0-.49-.22,5.31,5.31,0,0,1-1.33-.56,1,1,0,0,1-.4-.84,1.2,1.2,0,0,1,.39-.89,2.21,2.21,0,0,1,1.6-.52,2.19,2.19,0,0,1,1.28.31,1.35,1.35,0,0,1,.55.84L37.79,53a.68.68,0,0,0-.28-.36,1.19,1.19,0,0,0-.63-.16.9.9,0,0,0-.53.12.36.36,0,0,0-.16.28.32.32,0,0,0,.17.27,3.89,3.89,0,0,0,.66.23,3.51,3.51,0,0,1,1.16.49,1,1,0,0,1,.41.82A1.39,1.39,0,0,1,38,55.77a2.17,2.17,0,0,1-1.47.46,2.6,2.6,0,0,1-1.46-.35A1.72,1.72,0,0,1,34.41,54.9Z"/><path class="cls-1" d="M40.45,51.75h1.18l-.92,4.37H39.53Zm.35-1.66H42l-.22,1.07H40.57Z"/><path class="cls-1" d="M43.08,51.75H44.2l-.12.57a3.09,3.09,0,0,1,.78-.52,1.94,1.94,0,0,1,.77-.15,1.15,1.15,0,0,1,.85.31,1.11,1.11,0,0,1,.31.82,5.14,5.14,0,0,1-.14.87l-.51,2.48H45l.52-2.48A5.4,5.4,0,0,0,45.6,53a.47.47,0,0,0-.13-.36.51.51,0,0,0-.37-.13,1,1,0,0,0-.58.22,1.51,1.51,0,0,0-.5.58,4.86,4.86,0,0,0-.3,1l-.37,1.8H42.16Z"/><path class="cls-1" d="M47.51,56.35l1.25.18a.54.54,0,0,0,.06.29A.48.48,0,0,0,49,57a.87.87,0,0,0,.38.07,1.08,1.08,0,0,0,.6-.15.82.82,0,0,0,.28-.37,4.73,4.73,0,0,0,.17-.7l0-.21a2,2,0,0,1-1.27.51,1.36,1.36,0,0,1-1.05-.45,1.91,1.91,0,0,1-.41-1.33A3.5,3.5,0,0,1,48,52.94a2.14,2.14,0,0,1,.79-1,1.87,1.87,0,0,1,1-.33,1.45,1.45,0,0,1,.8.23,1.54,1.54,0,0,1,.56.65l.17-.77h1.11l-.76,3.65a12.17,12.17,0,0,1-.31,1.25,2.19,2.19,0,0,1-.29.6,1.41,1.41,0,0,1-.42.37,1.83,1.83,0,0,1-.59.22,3.91,3.91,0,0,1-.74.07,2.53,2.53,0,0,1-1.4-.32,1.18,1.18,0,0,1-.47-1.05A1.26,1.26,0,0,1,47.51,56.35Zm1.39-2.11a1.14,1.14,0,0,0,.22.76.71.71,0,0,0,.56.26.94.94,0,0,0,.6-.24,1.47,1.47,0,0,0,.45-.67,2.49,2.49,0,0,0,.15-.84,1.09,1.09,0,0,0-.25-.75.76.76,0,0,0-.58-.28.83.83,0,0,0-.58.25,1.86,1.86,0,0,0-.44.77A2.37,2.37,0,0,0,48.91,54.24Z"/><path class="cls-1" d="M55.62,56.12l1.26-6h2.06a7.2,7.2,0,0,1,.94,0,2,2,0,0,1,.75.25,1.24,1.24,0,0,1,.47.49,1.47,1.47,0,0,1,.16.68,1.39,1.39,0,0,1-.28.87,1.71,1.71,0,0,1-.86.56,1.36,1.36,0,0,1,.73.46,1.15,1.15,0,0,1,.26.74,1.9,1.9,0,0,1-.31,1,1.74,1.74,0,0,1-.85.7,4.18,4.18,0,0,1-1.49.21Zm1.45-1h1.2a3.41,3.41,0,0,0,1-.1.86.86,0,0,0,.41-.32.81.81,0,0,0,.15-.47.63.63,0,0,0-.22-.5,1.12,1.12,0,0,0-.74-.2H57.4Zm.55-2.63h.95a3.29,3.29,0,0,0,.92-.09.77.77,0,0,0,.56-.74.55.55,0,0,0-.13-.38.66.66,0,0,0-.37-.2,4.94,4.94,0,0,0-.65,0h-1Z"/><path class="cls-1" d="M62.84,51.75h1.1l-.18.85a1.69,1.69,0,0,1,1.34-1,1.37,1.37,0,0,1,.55.13l-.45,1a1,1,0,0,0-.34-.06,1.05,1.05,0,0,0-.62.23,1.54,1.54,0,0,0-.49.62,6.19,6.19,0,0,0-.35,1.22l-.29,1.37H61.92Z"/><path class="cls-1" d="M65.72,54.3a2.7,2.7,0,0,1,.69-1.94,2.37,2.37,0,0,1,1.8-.72,2.07,2.07,0,0,1,1.51.53,1.92,1.92,0,0,1,.54,1.44,2.69,2.69,0,0,1-.68,1.84,2.3,2.3,0,0,1-1.82.77,2.35,2.35,0,0,1-1.1-.25,1.61,1.61,0,0,1-.71-.7A2.08,2.08,0,0,1,65.72,54.3Zm3.37-.84a.93.93,0,0,0-.25-.67.84.84,0,0,0-.63-.25,1.05,1.05,0,0,0-.68.24,1.53,1.53,0,0,0-.46.69,2.45,2.45,0,0,0-.16.83,1.06,1.06,0,0,0,.25.75.84.84,0,0,0,.64.28,1,1,0,0,0,.82-.42A2.22,2.22,0,0,0,69.09,53.46Z"/><path class="cls-1" d="M71,56.12l1.26-6H73.4l-.66,3.14,1.54-1.48h1.54l-1.76,1.59L75,56.12H73.81l-.6-2-.8.71-.28,1.31Z"/><path class="cls-1" d="M80.19,54.3h-3s0,.08,0,.11a1,1,0,0,0,.25.7.8.8,0,0,0,.61.27,1,1,0,0,0,.92-.61l1.06.18a2.23,2.23,0,0,1-.83,1,2.16,2.16,0,0,1-1.16.32,1.93,1.93,0,0,1-1.43-.56,2,2,0,0,1-.55-1.48,2.69,2.69,0,0,1,.5-1.6,2.24,2.24,0,0,1,1.94-.95,1.68,1.68,0,0,1,1.28.5,1.93,1.93,0,0,1,.47,1.39A3.31,3.31,0,0,1,80.19,54.3Zm-1-.72c0-.05,0-.09,0-.12a1.06,1.06,0,0,0-.22-.73.75.75,0,0,0-.58-.24.93.93,0,0,0-.66.28,1.47,1.47,0,0,0-.39.82Z"/><path class="cls-1" d="M81.75,51.75h1.1l-.18.85a1.69,1.69,0,0,1,1.34-1,1.37,1.37,0,0,1,.55.13l-.45,1a1,1,0,0,0-.34-.06,1.05,1.05,0,0,0-.62.23,1.54,1.54,0,0,0-.49.62,6.19,6.19,0,0,0-.35,1.22L82,56.12H80.84Z"/><path class="cls-1" d="M90.56,56.12H89.38l-.22-5-1,5H87.08l1.26-6h1.77l.19,4.23,2.06-4.23h1.79l-1.26,6H91.75l1.19-5Z"/><path class="cls-1" d="M98.64,54.3h-3s0,.08,0,.11a1,1,0,0,0,.25.7.8.8,0,0,0,.61.27,1,1,0,0,0,.92-.61l1.06.18a2.23,2.23,0,0,1-.83,1,2.16,2.16,0,0,1-1.16.32,1.93,1.93,0,0,1-1.43-.56,2,2,0,0,1-.55-1.48,2.69,2.69,0,0,1,.5-1.6A2.24,2.24,0,0,1,97,51.64a1.68,1.68,0,0,1,1.28.5,1.93,1.93,0,0,1,.47,1.39A3.31,3.31,0,0,1,98.64,54.3Zm-1-.72c0-.05,0-.09,0-.12a1.06,1.06,0,0,0-.22-.73.75.75,0,0,0-.58-.24.93.93,0,0,0-.66.28,1.47,1.47,0,0,0-.39.82Z"/><path class="cls-1" d="M100.22,51.75h1.11l-.11.53a2,2,0,0,1,1.37-.63,1.23,1.23,0,0,1,.76.21.93.93,0,0,1,.34.57,1.76,1.76,0,0,1,.65-.55,1.87,1.87,0,0,1,.88-.22,1.13,1.13,0,0,1,.82.28,1,1,0,0,1,.29.74,4.5,4.5,0,0,1-.12.78l-.56,2.67h-1.18l.56-2.67q.1-.5.1-.57a.38.38,0,0,0-.11-.29.45.45,0,0,0-.33-.11,1,1,0,0,0-.79.47,3.14,3.14,0,0,0-.43,1.18l-.42,2h-1.18l.55-2.64a3.84,3.84,0,0,0,.09-.59.37.37,0,0,0-.12-.28.45.45,0,0,0-.32-.11.83.83,0,0,0-.4.12,1.17,1.17,0,0,0-.36.32,1.89,1.89,0,0,0-.27.52q0,.15-.16.67l-.42,2H99.31Z"/><path class="cls-1" d="M107.09,56.12l1.26-6h1.19l-.42,2a2.43,2.43,0,0,1,.61-.35,1.75,1.75,0,0,1,.62-.1,1.42,1.42,0,0,1,1.11.46,2,2,0,0,1,.42,1.35,3.52,3.52,0,0,1-.2,1.16,2.57,2.57,0,0,1-.52.91,2.29,2.29,0,0,1-.69.52,1.74,1.74,0,0,1-.76.17,1.46,1.46,0,0,1-1.38-.82l-.15.72Zm1.59-1.78a1,1,0,0,0,.25.72.77.77,0,0,0,.59.28.9.9,0,0,0,.57-.21,1.56,1.56,0,0,0,.45-.68,2.65,2.65,0,0,0,.18-.95,1.05,1.05,0,0,0-.24-.73.76.76,0,0,0-.58-.27,1,1,0,0,0-.77.41A2.26,2.26,0,0,0,108.68,54.34Z"/><path class="cls-1" d="M116.8,54.3h-3s0,.08,0,.11a1,1,0,0,0,.25.7.8.8,0,0,0,.61.27,1,1,0,0,0,.92-.61l1.06.18a2.23,2.23,0,0,1-.83,1,2.16,2.16,0,0,1-1.16.32,1.93,1.93,0,0,1-1.43-.56,2,2,0,0,1-.55-1.48,2.69,2.69,0,0,1,.5-1.6,2.24,2.24,0,0,1,1.94-.95,1.68,1.68,0,0,1,1.28.5,1.93,1.93,0,0,1,.47,1.39A3.31,3.31,0,0,1,116.8,54.3Zm-1-.72c0-.05,0-.09,0-.12a1.06,1.06,0,0,0-.22-.73.75.75,0,0,0-.58-.24.93.93,0,0,0-.66.28,1.47,1.47,0,0,0-.39.82Z"/><path class="cls-1" d="M118.35,51.75h1.1l-.18.85a1.69,1.69,0,0,1,1.34-1,1.37,1.37,0,0,1,.55.13l-.45,1a1,1,0,0,0-.34-.06,1.05,1.05,0,0,0-.62.23,1.54,1.54,0,0,0-.49.62,6.19,6.19,0,0,0-.35,1.22l-.29,1.37h-1.18Z"/><polygon class="cls-1" points="23.57 56.12 23.78 55.11 20.7 55.11 21.75 50.08 20.52 50.08 19.25 56.12 23.57 56.12"/><path class="cls-1" d="M26,53.58a1.49,1.49,0,0,1,.4-.83.93.93,0,0,1,.66-.28.77.77,0,0,1,.59.24,1.11,1.11,0,0,1,.21.74v.12ZM29,53.52a2,2,0,0,0-.47-1.39,1.7,1.7,0,0,0-1.28-.5,2.26,2.26,0,0,0-1.94,1,2.72,2.72,0,0,0-.5,1.6,2,2,0,0,0,.56,1.49,1.92,1.92,0,0,0,1.43.56,2.13,2.13,0,0,0,2-1.27l-1.05-.18a1,1,0,0,1-.93.61.82.82,0,0,1-.62-.27,1,1,0,0,1-.24-.71V54.3h3A3.13,3.13,0,0,0,29,53.52Z"/><path class="cls-1" d="M32.37,54.23a2.75,2.75,0,0,1-.21.64.81.81,0,0,1-.36.34,1,1,0,0,1-.51.14.54.54,0,0,1-.39-.14.46.46,0,0,1-.15-.35.5.5,0,0,1,.19-.4,2.75,2.75,0,0,1,1.16-.32l.29-.05Zm-.84-1.63a.85.85,0,0,1,.5-.13.7.7,0,0,1,.45.13.4.4,0,0,1,.15.32,1.43,1.43,0,0,1-.08.4,5.07,5.07,0,0,1-1.13.17,2.24,2.24,0,0,0-1.39.46,1.33,1.33,0,0,0-.39,1,1.27,1.27,0,0,0,.35.93,1.23,1.23,0,0,0,.9.35,1.53,1.53,0,0,0,.67-.16,1.8,1.8,0,0,0,.6-.45,2.4,2.4,0,0,0,.08.5h1.16a2.24,2.24,0,0,1-.1-.62,5.87,5.87,0,0,1,.18-1.1c.14-.63.22-1,.24-1.17a2.54,2.54,0,0,0,0-.42,1.05,1.05,0,0,0-.4-.84,1.91,1.91,0,0,0-1.25-.34,2.33,2.33,0,0,0-1.31.33,1.76,1.76,0,0,0-.69.9l1.16.1A.59.59,0,0,1,31.53,52.6Z"/><path class="cls-1" d="M35.12,55.88a2.66,2.66,0,0,0,1.47.35,2.15,2.15,0,0,0,1.47-.46,1.42,1.42,0,0,0,.52-1.09,1,1,0,0,0-.41-.83,3.5,3.5,0,0,0-1.15-.5,4.7,4.7,0,0,1-.67-.23.31.31,0,0,1-.16-.27.35.35,0,0,1,.16-.29.88.88,0,0,1,.53-.13,1.18,1.18,0,0,1,.63.16.72.72,0,0,1,.28.36l1.09-.19a1.35,1.35,0,0,0-.55-.84,2.13,2.13,0,0,0-1.27-.31,2.2,2.2,0,0,0-1.59.52,1.2,1.2,0,0,0-.39.9,1.05,1.05,0,0,0,.4.84,5.5,5.5,0,0,0,1.33.56,1.66,1.66,0,0,1,.49.23.29.29,0,0,1,.08.21.38.38,0,0,1-.17.3,1,1,0,0,1-.64.19.94.94,0,0,1-1-.67l-1.15.19A1.76,1.76,0,0,0,35.12,55.88Z"/><path class="cls-1" d="M39.54,56.12h1.18l.92-4.38H40.46Zm1-5h1.18L42,50.08H40.81Z"/><path class="cls-1" d="M42.18,56.12h1.18l.37-1.8a4.72,4.72,0,0,1,.31-1,1.47,1.47,0,0,1,.5-.58,1.12,1.12,0,0,1,.58-.22.5.5,0,0,1,.38.14.47.47,0,0,1,.13.36,5.79,5.79,0,0,1-.12.67L45,56.12h1.18l.53-2.47a4.74,4.74,0,0,0,.15-.87,1.13,1.13,0,0,0-.31-.83,1.16,1.16,0,0,0-.86-.31,1.84,1.84,0,0,0-.77.16,3,3,0,0,0-.79.52l.11-.57H43.1Z"/><path class="cls-1" d="M49.07,53.5a1.82,1.82,0,0,1,.44-.78.83.83,0,0,1,.58-.25.78.78,0,0,1,.6.29,1.08,1.08,0,0,1,.25.75,2.56,2.56,0,0,1-.15.84,1.56,1.56,0,0,1-.46.67,1,1,0,0,1-.62.24.68.68,0,0,1-.56-.26,1.14,1.14,0,0,1-.23-.77A2.26,2.26,0,0,1,49.07,53.5Zm-1.54,3A1.17,1.17,0,0,0,48,57.58a2.55,2.55,0,0,0,1.4.32,4.09,4.09,0,0,0,.76-.07,2,2,0,0,0,.61-.21,1.51,1.51,0,0,0,.42-.37,2.07,2.07,0,0,0,.3-.6c.08-.25.19-.67.32-1.25l.7-3.66H51.39l-.16.78a1.5,1.5,0,0,0-.56-.65,1.42,1.42,0,0,0-.8-.24,1.87,1.87,0,0,0-1,.33,2.16,2.16,0,0,0-.79,1,3.55,3.55,0,0,0-.28,1.42,1.89,1.89,0,0,0,.41,1.33,1.35,1.35,0,0,0,1.05.46,2.14,2.14,0,0,0,1.33-.51l0,.2a5.52,5.52,0,0,1-.18.7.84.84,0,0,1-.3.37,1.18,1.18,0,0,1-.64.15A.89.89,0,0,1,49,57a.45.45,0,0,1-.2-.17.52.52,0,0,1-.06-.29l-1.25-.18A1.18,1.18,0,0,0,47.52,56.52Z"/><path class="cls-1" d="M57.42,53.57h1.48a1.16,1.16,0,0,1,.75.19.65.65,0,0,1,.22.5.83.83,0,0,1-.15.47,1,1,0,0,1-.41.32,3.72,3.72,0,0,1-1,.09H57.1Zm.52-2.48h1a5,5,0,0,1,.66,0,.68.68,0,0,1,.37.19.54.54,0,0,1,.14.38.77.77,0,0,1-.57.73,3.26,3.26,0,0,1-.92.09h-.95Zm.56,5A4.16,4.16,0,0,0,60,55.91a1.71,1.71,0,0,0,.85-.71,1.84,1.84,0,0,0,.31-1,1.14,1.14,0,0,0-.26-.74,1.32,1.32,0,0,0-.72-.46,1.73,1.73,0,0,0,.87-.56,1.39,1.39,0,0,0,.28-.87,1.41,1.41,0,0,0-.16-.68,1.22,1.22,0,0,0-.47-.5,2.06,2.06,0,0,0-.75-.24,7.58,7.58,0,0,0-.94,0H56.92l-1.26,6Z"/><path class="cls-1" d="M62,56.12h1.18l.28-1.37a6.22,6.22,0,0,1,.35-1.22,1.6,1.6,0,0,1,.5-.62,1.05,1.05,0,0,1,.62-.23.94.94,0,0,1,.35.06l.46-1a1.36,1.36,0,0,0-.54-.13,1.68,1.68,0,0,0-1.33.94l.17-.83H62.87Z"/><path class="cls-1" d="M68.66,54.9a1,1,0,0,1-.82.42A.84.84,0,0,1,67.2,55a1.08,1.08,0,0,1-.25-.75,2.48,2.48,0,0,1,.16-.83,1.59,1.59,0,0,1,.46-.7,1,1,0,0,1,.67-.24.83.83,0,0,1,.63.25,1,1,0,0,1,.24.68A2.25,2.25,0,0,1,68.66,54.9ZM66,55.28a1.6,1.6,0,0,0,.71.71,2.42,2.42,0,0,0,1.1.24,2.31,2.31,0,0,0,1.82-.78,2.74,2.74,0,0,0,.67-1.85,2,2,0,0,0-.54-1.44,2.08,2.08,0,0,0-1.51-.53,2.37,2.37,0,0,0-1.8.73,2.72,2.72,0,0,0-.68,1.95A2,2,0,0,0,66,55.28Z"/><polygon class="cls-1" points="72.18 56.12 72.45 54.8 73.25 54.09 73.86 56.12 75.04 56.12 74.1 53.32 75.86 51.74 74.32 51.74 72.78 53.22 73.44 50.08 72.26 50.08 71 56.12 72.18 56.12"/><path class="cls-1" d="M77.39,53.58a1.49,1.49,0,0,1,.4-.83.93.93,0,0,1,.66-.28.77.77,0,0,1,.59.24,1.11,1.11,0,0,1,.21.74v.12Zm2.94-.06a2,2,0,0,0-.47-1.39,1.7,1.7,0,0,0-1.28-.5,2.26,2.26,0,0,0-1.94,1,2.72,2.72,0,0,0-.5,1.6,2,2,0,0,0,.56,1.49,1.92,1.92,0,0,0,1.43.56,2.13,2.13,0,0,0,2-1.27l-1.05-.18a1,1,0,0,1-.93.61.82.82,0,0,1-.62-.27,1,1,0,0,1-.24-.71V54.3h3A3.13,3.13,0,0,0,80.33,53.52Z"/><path class="cls-1" d="M80.88,56.12h1.18l.28-1.37a6.14,6.14,0,0,1,.35-1.22,1.59,1.59,0,0,1,.5-.62,1.05,1.05,0,0,1,.62-.23.94.94,0,0,1,.35.06l.46-1a1.36,1.36,0,0,0-.54-.13,1.68,1.68,0,0,0-1.33.94l.17-.83H81.8Z"/><polygon class="cls-1" points="92.88 51.11 91.82 56.12 92.94 56.12 94.05 50.08 92.26 50.08 90.36 54.23 90.18 50.08 88.41 50.08 87.14 56.12 88.26 56.12 89.22 51.08 89.44 56.12 90.62 56.12 92.88 51.11"/><path class="cls-1" d="M95.85,53.58a1.49,1.49,0,0,1,.4-.83.93.93,0,0,1,.66-.28.77.77,0,0,1,.59.24,1.11,1.11,0,0,1,.21.74v.12Zm2.94-.06a2,2,0,0,0-.47-1.39,1.7,1.7,0,0,0-1.28-.5,2.26,2.26,0,0,0-1.94,1,2.72,2.72,0,0,0-.5,1.6,2,2,0,0,0,.56,1.49,1.92,1.92,0,0,0,1.43.56,2.13,2.13,0,0,0,2-1.27l-1.05-.18a1,1,0,0,1-.93.61.82.82,0,0,1-.62-.27,1,1,0,0,1-.24-.71V54.3h3A3.13,3.13,0,0,0,98.78,53.52Z"/><path class="cls-1" d="M99.37,56.12h1.18l.42-2c.08-.35.14-.58.17-.68a2,2,0,0,1,.26-.51,1.28,1.28,0,0,1,.36-.32.82.82,0,0,1,.4-.12.44.44,0,0,1,.32.11.39.39,0,0,1,.12.29,4.6,4.6,0,0,1-.09.6L102,56.12h1.18l.41-2a3.09,3.09,0,0,1,.44-1.19,1,1,0,0,1,.79-.47.42.42,0,0,1,.33.11.38.38,0,0,1,.12.29s0,.24-.12.57l-.57,2.66h1.18l.57-2.66a6.44,6.44,0,0,0,.13-.79,1,1,0,0,0-.3-.75,1.11,1.11,0,0,0-.82-.29,2,2,0,0,0-.89.22,1.85,1.85,0,0,0-.65.56,1,1,0,0,0-.34-.57,1.24,1.24,0,0,0-.76-.2,2,2,0,0,0-1.37.63l.1-.52h-1.11Z"/><path class="cls-1" d="M109.18,52.89a.93.93,0,0,1,.77-.41.76.76,0,0,1,.58.27,1.06,1.06,0,0,1,.24.73,2.76,2.76,0,0,1-.18,1,1.59,1.59,0,0,1-.46.68.9.9,0,0,1-.57.22.76.76,0,0,1-.59-.28,1,1,0,0,1-.25-.73A2.3,2.3,0,0,1,109.18,52.89Zm-1,3.23.15-.71a1.46,1.46,0,0,0,1.38.82,1.83,1.83,0,0,0,.76-.17,2.45,2.45,0,0,0,.69-.53,2.79,2.79,0,0,0,.52-.91,3.68,3.68,0,0,0,.19-1.16,2,2,0,0,0-.42-1.36,1.41,1.41,0,0,0-1.11-.46,1.8,1.8,0,0,0-.62.1,2.94,2.94,0,0,0-.61.35l.43-2h-1.18l-1.27,6Z"/><path class="cls-1" d="M114,53.58a1.49,1.49,0,0,1,.4-.83.93.93,0,0,1,.66-.28.77.77,0,0,1,.59.24,1.11,1.11,0,0,1,.21.74v.12Zm2.94-.06a2,2,0,0,0-.47-1.39,1.7,1.7,0,0,0-1.28-.5,2.26,2.26,0,0,0-1.94,1,2.72,2.72,0,0,0-.5,1.6,2,2,0,0,0,.56,1.49,1.92,1.92,0,0,0,1.43.56,2.13,2.13,0,0,0,2-1.27l-1.05-.18a1,1,0,0,1-.93.61.82.82,0,0,1-.62-.27,1,1,0,0,1-.24-.71V54.3h3A3.13,3.13,0,0,0,117,53.52Z"/><path class="cls-1" d="M117.51,56.12h1.18l.28-1.37a6.14,6.14,0,0,1,.35-1.22,1.59,1.59,0,0,1,.5-.62,1.05,1.05,0,0,1,.62-.23.94.94,0,0,1,.35.06l.46-1a1.36,1.36,0,0,0-.54-.13,1.68,1.68,0,0,0-1.33.94l.17-.83h-1.11Z"/></g></svg>