<svg xmlns="http://www.w3.org/2000/svg" viewBox="0 0 70 55"><defs><style>.cls-1{font-size:12px;font-family:MyriadPro-Regular, Myriad Pro;}.cls-2{letter-spacing:-0.01em;}.cls-3{letter-spacing:0em;}</style></defs><title>category-large</title><g id="Layer_1" data-name="Layer 1"><text class="cls-1" transform="translate(21.28 50.13)">La<tspan class="cls-2" x="11.45" y="0">r</tspan><tspan class="cls-3" x="15.28" y="0">ge</tspan></text><path d="M59.72,32.8A4.87,4.87,0,1,0,50,32.25a4.6,4.6,0,0,0,.08.81c-5.9.07-22.28.06-28.59.06a4.87,4.87,0,1,0-9.67-.87,4.77,4.77,0,0,0,0,.52c-2.76-.18-5.39-.38-6.44-.46l-1-2.82L5.5,27.14l2.28.12h0a.74.74,0,0,0,.4-.12L11.54,25a.75.75,0,0,0,.26-1l-.41-.78c1.81-.47,3.56-1.1,5.28-1.73L18.08,21c.75.67,2.41,2,3.67,2.06S48.7,24.42,49,24.43h0c3.42.18,6.52.5,9.11.88L61,28a.73.73,0,0,0,.42.2,40.52,40.52,0,0,1,4.83.89,14.63,14.63,0,0,1-.33,3.06A40,40,0,0,1,59.72,32.8Zm-4.84,2.83a3.38,3.38,0,1,1,3.37-3.37A3.38,3.38,0,0,1,54.88,35.63Zm-38.19,0a3.38,3.38,0,1,1,3.38-3.37A3.38,3.38,0,0,1,16.69,35.63ZM6.94,24a20.26,20.26,0,0,0,2.93-.39l.28.52L7.61,25.75l-1.44-.08Zm14.86-4.16a45.29,45.29,0,0,1,5.78-1.13c.27,1.13.58,2.46.73,3.19l-6.5-.31a4.94,4.94,0,0,1-2.06-1.12C20.43,20.24,21.12,20,21.81,19.85Zm9.82-1.46a27,27,0,0,1,5.84.49,27.32,27.32,0,0,1,8.83,3.92L29.85,22c-.12-.77-.51-2.4-.76-3.44C29.95,18.46,30.79,18.41,31.62,18.39Zm34.29,9c-1.42-.34-3.38-.62-4.1-.72l-1.05-1c2.92.53,4.77,1.09,5,1.47A1.61,1.61,0,0,1,65.91,27.44Zm1.17-1c-.27-.44-.91-1.47-8.33-2.52-3.58-.5-7.52-.83-9.44-.95-3.75-2.46-7.45-4.72-11.55-5.54a28.78,28.78,0,0,0-6.16-.51,43.25,43.25,0,0,0-10.17,1.51c-1.8.48-3.57,1.12-5.27,1.74-3.25,1.18-6.33,2.3-9.72,2.39a.75.75,0,0,0-.66.43L2.92,29.15a.77.77,0,0,0,0,.57l1.27,3.56a.75.75,0,0,0,.65.5c.25,0,3.81.31,7.47.54a4.87,4.87,0,0,0,8.67.31h7.77c8.93,0,18.12,0,21.86-.06a4.87,4.87,0,0,0,8.7-.24,38.18,38.18,0,0,0,7.42-.85.75.75,0,0,0,.53-.53C67.34,32.48,68.33,28.44,67.08,26.41Z"/><circle cx="54.88" cy="32.25" r="2.53"/><circle cx="16.69" cy="32.25" r="2.53"/></g></svg>