<?xml version="1.0" encoding="utf-8"?>
<!-- Generator: Adobe Illustrator 20.1.0, SVG Export Plug-In . SVG Version: 6.00 Build 0)  -->
<svg version="1.1" id="Layer_1" xmlns="http://www.w3.org/2000/svg" xmlns:xlink="http://www.w3.org/1999/xlink" x="0px" y="0px"
	 viewBox="0 0 70 55" style="enable-background:new 0 0 70 55;" xml:space="preserve">
<style type="text/css">
	.st0{font-family:'MyriadPro-Semibold';}
	.st1{font-size:12px;}
</style>
<title>category-4x4</title>
<g id="Layer_1_1_">
	<text transform="matrix(1 0 0 1 10.75 50.12)" class="st0 st1">4x4 / SUV</text>
	<path d="M66,28.6h-3.4c-1.5-2.9-5.1-4.1-8-2.6c-1.5,0.8-2.6,2.1-3,3.7h-3.8l5.5-6.4h9.4l1.3,2.5c0.1,0.2,0.2,0.3,0.4,0.4l1.6,0.6
		L66,28.6z M57.4,35.8c-2.5,0-4.5-1.9-4.5-4.4c0-2.5,1.9-4.5,4.4-4.5c1.8,0,3.4,1,4.1,2.6c0,0.1,0,0.1,0.1,0.2
		c0.9,2.3-0.2,4.9-2.4,5.8C58.5,35.7,57.9,35.8,57.4,35.8L57.4,35.8z M28.8,29.7l-6.5-7.7c-0.1-0.2-0.4-0.3-0.6-0.3h-9.3
		c-0.3,0-0.5,0.1-0.6,0.4l-2,3.3h-2v-6.6l3.1-9.7h2.8l-2.2,7.1c-0.1,0.2,0,0.5,0.1,0.7c0.1,0.2,0.4,0.3,0.6,0.3H27V24
		c0,0.2,0.1,0.3,0.1,0.5l2.3,3.1c0.1,0.2,0.4,0.3,0.6,0.3h12.6c0.4,0,0.8-0.3,0.8-0.8l0,0v-9.6l13.5,1.7l0.7,0.1
		c0.9,0,1.8,0.2,2.6,0.6c0.7,0.5,1.3,1.2,1.6,2h-9c-0.2,0-0.4,0.1-0.6,0.3l-6.5,7.6H28.8z M23.3,29.7c-0.9-3.2-4.2-5-7.3-4.1
		c-1.7,0.5-3.1,1.7-3.8,3.4H6.2v-2h3.9c0.3,0,0.5-0.1,0.6-0.4l2-3.3h8.6l5.5,6.4L23.3,29.7z M17.6,35.8c-2.5,0-4.4-2-4.4-4.4
		c0,0,0,0,0,0c0-0.4,0.1-0.8,0.2-1.2c0.1-0.3,0.2-0.5,0.2-0.5c0.9-2.3,3.5-3.4,5.8-2.5s3.4,3.5,2.5,5.8C21,34.7,19.4,35.8,17.6,35.8
		L17.6,35.8z M3.4,25.5V16h3.7l-0.8,2.6c0,0.1,0,0.2,0,0.2v6.8L3.4,25.5z M27,9.1v6.6H13.1l2.1-6.6H27z M28.5,20.2h2.1
		c0.4,0,0.8-0.3,0.8-0.8s-0.3-0.8-0.8-0.8l0,0h-2.1v-1.5H42v9.1H30.4l-2-2.6L28.5,20.2z M28.5,9.1h9.8l3.5,6.6H28.5L28.5,9.1z
		 M67,25.5l-1.8-0.6l-1.4-2.7l0,0l0,0c-0.6-1.2-1.5-3.1-2.9-3.7c-1-0.4-2-0.7-3.1-0.7l-0.7-0.1L43.6,16l-4.2-8
		c-0.1-0.2-0.4-0.4-0.7-0.4H10.3c-0.3,0-0.6,0.2-0.7,0.5l-2,6.3H2.6c-0.4,0-0.8,0.3-0.8,0.8v11c0,0.4,0.3,0.8,0.8,0.8h2.1v2.7
		c0,0.4,0.3,0.8,0.8,0.8h6.3c-0.5,3.2,1.7,6.3,5,6.8s6.3-1.7,6.8-5c0-0.3,0.1-0.6,0.1-0.9c0,0,0-0.1,0-0.1h27.9c0,0,0,0.1,0,0.1
		c0,3.3,2.7,5.9,5.9,5.9c3.3,0,5.9-2.7,5.9-5.9c0-0.4,0-0.9-0.1-1.3h3.6c0.4,0,0.8-0.3,0.8-0.8l0,0v-3C67.5,25.9,67.3,25.7,67,25.5z
		"/>
	<circle cx="17.6" cy="31.4" r="2.5"/>
	<circle cx="57.3" cy="31.4" r="2.5"/>
</g>
</svg>
