<svg xmlns="http://www.w3.org/2000/svg" viewBox="0 0 70 55"><defs><style>.cls-1{font-size:12px;font-family:MyriadPro-Regular, Myriad Pro;}.cls-2{letter-spacing:0.02em;}.cls-3{letter-spacing:0em;}</style></defs><title>category-sports</title><g id="Layer_1" data-name="Layer 1"><text class="cls-1" transform="translate(18.28 50.12)">Spo<tspan class="cls-2" x="19.33" y="0">r</tspan><tspan class="cls-3" x="23.54" y="0">ts</tspan></text><path d="M56.56,33.57a5.2,5.2,0,0,0,.29-1.69,5,5,0,0,0-.05-.69l6.79.25,0,1.63C62.13,33.21,58.59,33.52,56.56,33.57Zm-5-6.94a5.24,5.24,0,0,0-4.95,7H20.54a5.25,5.25,0,1,0-10.19-1.75,5.28,5.28,0,0,0,.16,1.25L5.37,32,5.2,21.31h3L9.91,23c-.72.31-1.44.63-2.15,1a.75.75,0,0,0,.65,1.35,48.61,48.61,0,0,1,16.68-4.57,11.54,11.54,0,0,0-3.14,3.11l-4.89-.3a.75.75,0,1,0-.1,1.5c3.47.23,7,.43,10.42.61l4.26.24,2.08.13c1.85.12,3.74.25,5.63.25.9,0,1.8,0,2.69-.1l.44,0a14.59,14.59,0,0,0,5.82-1.26c2.74.73,10,2.79,13.84,5l-5.77-.22A5.26,5.26,0,0,0,51.6,26.63Zm0,9a3.75,3.75,0,1,1,3.75-3.75A3.76,3.76,0,0,1,51.6,35.63Zm-36,0a3.75,3.75,0,1,1,3.75-3.75A3.76,3.76,0,0,1,15.6,35.63ZM28.42,20.55l.08-.06a41.2,41.2,0,0,1,5.35.09,14.44,14.44,0,0,1,1.57.21,54.52,54.52,0,0,1,10.71,3.34,21.68,21.68,0,0,1-3.78.52l-.45,0a56.75,56.75,0,0,1-8.1-.15l-2.09-.13-4.26-.24L23.74,24A13.67,13.67,0,0,1,28.42,20.55Zm36.71,10.2A.74.74,0,0,0,65,30.4a.73.73,0,0,0-.22-.45c-3.62-3.31-16-6.48-17.19-6.78a53.9,53.9,0,0,0-11.93-3.84A16.28,16.28,0,0,0,34,19.09a41.93,41.93,0,0,0-6.57,0,53.9,53.9,0,0,0-16,3.36L9,20a.74.74,0,0,0-.53-.22H4.45a.76.76,0,0,0-.53.22.75.75,0,0,0-.22.54l.19,12.06a.75.75,0,0,0,.59.72l6.79,1.47a5.24,5.24,0,0,0,8.45.3H47.48a5.23,5.23,0,0,0,8.26-.05H56c2.46,0,8.19-.56,8.45-.58a.75.75,0,0,0,.68-.76L65.07,31A.61.61,0,0,0,65.13,30.75Z"/><circle cx="51.6" cy="31.88" r="2.53"/><circle cx="15.6" cy="31.88" r="2.53"/></g></svg>