<svg xmlns="http://www.w3.org/2000/svg" viewBox="0 0 70 55"><defs><style>.cls-1{font-size:12px;font-family:MyriadPro-Regular, Myriad Pro;}.cls-2{letter-spacing:-0.02em;}.cls-3{letter-spacing:-0.01em;}</style></defs><title>category-prestige</title><g id="Layer_1" data-name="Layer 1"><text class="cls-1" transform="translate(14.69 50.12)"><tspan class="cls-2">P</tspan><tspan class="cls-3" x="6.19" y="0">r</tspan><tspan x="10" y="0">estige</tspan></text><circle cx="14.21" cy="32.18" r="2.53"/><circle cx="53.82" cy="32.18" r="2.53"/><path d="M65.79,28.92c-.46-1.53-2.2-2.77-5.25-3.75a.74.74,0,0,0-.31-.1,42.51,42.51,0,0,0-5.63-1.25,91.05,91.05,0,0,0-9.52-1c-.18-.06-.7-.3-1.2-.53-2.41-1.11-7.43-3.42-11.48-3.64-6.25-.34-13.53,1.05-21.62,4.13-1.19.45-2.42,1-3.64,1.5l-.46.18C4,25.55,3.56,25.8,3.53,26.42c-.1,2.07,2.4,8.21,2.68,8.9a.75.75,0,0,0,.7.47h3.51a5.22,5.22,0,0,0,7.73-.14H49.89a5.23,5.23,0,0,0,7.87,0h0l4.52-.42a4.73,4.73,0,0,0,3.16-1.91A5.11,5.11,0,0,0,65.79,28.92Zm-1.56.14a3.69,3.69,0,0,1-2.15-.8A2.85,2.85,0,0,1,61.27,27,5.59,5.59,0,0,1,64.23,29.05Zm-50,6.87A3.75,3.75,0,1,1,18,32.18,3.76,3.76,0,0,1,14.21,35.93Zm39.61,0a3.75,3.75,0,1,1,3.75-3.75A3.76,3.76,0,0,1,53.82,35.93Zm10.4-3.45a3.24,3.24,0,0,1-2.08,1.25L58.72,34a5.25,5.25,0,1,0-9.76.1h-5c3.2-2.32,4.22-6.62,4.28-6.86a.75.75,0,0,0-1.46-.34c0,.07-1.64,6.86-7,7.15a.7.7,0,0,0-.17,0H19.08a5.25,5.25,0,1,0-9.67.14h-2A39.79,39.79,0,0,1,5,26.81c.53-.27,1.74-.75,2.18-.92l.52-.21c1.2-.53,2.41-1,3.58-1.47,7.9-3,15-4.37,21-4,3,.16,6.6,1.58,9.15,2.7-5,0-14.54-.15-21.42-.26a.75.75,0,1,0,0,1.5c2,0,16.87.27,22.73.27,1.13,0,1.92,0,2.22,0a66.94,66.94,0,0,1,14.57,2.08,5.27,5.27,0,0,0,1.56,3,5.37,5.37,0,0,0,3.49,1.18A2.94,2.94,0,0,1,64.22,32.47Z"/><path d="M27.37,25H25.84a.75.75,0,0,0,0,1.5h1.53a.75.75,0,0,0,0-1.5Z"/></g></svg>