<svg xmlns="http://www.w3.org/2000/svg" viewBox="0 0 70 55"><defs><style>.cls-1{font-size:12px;font-family:MyriadPro-Regular, Myriad Pro;letter-spacing:0.01em;}.cls-2{letter-spacing:0em;}</style></defs><title>category-medium</title><g id="Layer_1" data-name="Layer 1"><text class="cls-1" transform="translate(14.45 50.13)">M<tspan class="cls-2" x="9.72" y="0">edium</tspan></text><path d="M58,25.7c2.23.76,4.33,1.68,5.14,2.6A8.15,8.15,0,0,1,58,25.7Zm-18.84-4c-4.06-.24-9-.54-13.39-.83l-.23-4.29c5.57-.09,11.07.47,15.92,2.66,2,.91,4,2,5.64,2.8l.3.16ZM15.69,20A8.79,8.79,0,0,1,13,17.52l2.28-.23c1-.11,2-.22,3-.3,1.91-.16,3.85-.3,5.78-.37l.23,4.15C19.75,20.45,16.22,20.17,15.69,20ZM51,34.25h0a3.71,3.71,0,0,1-.8-2.28,3.79,3.79,0,1,1,.8,2.29ZM13.93,35.7A3.75,3.75,0,1,1,17.68,32,3.76,3.76,0,0,1,13.93,35.7Zm51.85-1-.65-1.83a6,6,0,0,0-.32-4.72c-1.51-3.48-13.27-5.68-13.38-5.7A26,26,0,0,1,47.8,20.7c-1.63-.85-3.66-1.91-5.72-2.84-7.27-3.28-15.81-3.09-23.94-2.38-1,.09-2,.2-3,.31-1.26.14-2.56.28-3.82.37A41.46,41.46,0,0,1,6.64,15a.75.75,0,0,0-.41,1.44,42,42,0,0,0,5,1.19c.52.73,2.38,3.19,3.94,3.76,1.05.38,10.15.95,23.91,1.77,5.29.32,9.87.59,12.17.77h.06l.07,0c.77.13,2.41.49,4.24,1a9.66,9.66,0,0,0,8.19,4.89,3.6,3.6,0,0,1-.11,2.54.76.76,0,0,0-.08.66L64,34.21c-1.36.05-3.79.13-5.43.14A5.2,5.2,0,0,0,59.18,32a5.25,5.25,0,0,0-10.5,0A5.2,5.2,0,0,0,49.1,34l-30.24-.26A5.25,5.25,0,1,0,8.79,33,3.25,3.25,0,0,1,7,32.22c0-.21-.07-.43-.11-.67a19.19,19.19,0,0,1-.35-4.25,10.26,10.26,0,0,1,.19-1.72c0-.21.07-.39.1-.59a7.22,7.22,0,0,0,2.92-1.3C10.16,23.15,12,21,12,21l-1.14-1S9,22.19,8.59,22.71a7.2,7.2,0,0,1-1.78.71c.1-1,2-2.75,3.25-3.71a.75.75,0,0,0-.89-1.21c-.68.5-4,3.07-3.87,5.16a4.82,4.82,0,0,1-.06,1.62A11.24,11.24,0,0,0,5,27.23a20.07,20.07,0,0,0,.37,4.56c0,.23.07.44.11.65.24,1.55,2.85,2.06,3.93,2.2A5.24,5.24,0,0,0,18,35.2l.11,0,31.94.28a5.22,5.22,0,0,0,7.37.32h.92c2.35,0,6.52-.17,6.73-.17a.75.75,0,0,0,.59-.33A.77.77,0,0,0,65.78,34.67Z"/><path d="M29.66,25.58h.06a.75.75,0,0,0,.06-1.5l-2.86-.24a.75.75,0,1,0-.12,1.5Z"/><circle cx="13.93" cy="31.95" r="2.53"/><circle cx="53.93" cy="31.95" r="2.53"/></g></svg>