<?xml version="1.0" encoding="utf-8"?>
<!-- Generator: Adobe Illustrator 20.1.0, SVG Export Plug-In . SVG Version: 6.00 Build 0)  -->
<svg version="1.1" id="Layer_1" xmlns="http://www.w3.org/2000/svg" xmlns:xlink="http://www.w3.org/1999/xlink" x="0px" y="0px"
	 viewBox="0 0 70 55" style="enable-background:new 0 0 70 55;" xml:space="preserve">
<style type="text/css">
	.st0{font-family:'MyriadPro-Semibold';}
	.st1{font-size:12px;}
</style>
<title>category-4x4</title>
<g id="Layer_1_1_">
	<text transform="matrix(1 0 0 1 18.75 50.12)" class="st0 st1">Estate</text>
</g>
<path d="M63.7,22c-0.1-0.1-0.2-0.1-0.3-0.1c0,0-9.3-1.9-12-2.4c-0.8-0.2-1.9-0.7-3.2-1.4c0,0,0,0-0.1,0c-1.2-0.6-2.5-1.4-3.8-2.1
	c-2-1.1-3.9-2.2-5.1-2.7c-3-1.1-22.9-1.4-33.7,0.8c-0.3,0.1-0.5,0.2-0.6,0.5c-0.1,0.2-2.2,6.1-2.1,15.9c0,0.4,0.3,0.7,0.7,0.7
	c0.2,0,2.3,0.3,5.1,0.6c0.4,2.7,2.7,4.8,5.6,4.8c2.4,0,4.5-1.5,5.3-3.6c2,0.2,3.8,0.3,5,0.4c4.3,0.2,19.9,0.4,25.5,0.4
	c1,1.7,2.8,2.8,4.9,2.8c2.1,0,4-1.2,5-3c3.4-0.2,5.4-0.7,5.7-1.5C66.3,30.5,67.1,24.5,63.7,22z M63,23.3c0.4,0.3,0.8,0.8,1,1.3
	l-1.6-0.1c-0.4-0.4-1.1-1-1.7-1.6C61.7,23.1,62.6,23.3,63,23.3z M38.7,14.7c1.1,0.4,2.9,1.5,4.9,2.6c1.2,0.7,2.4,1.4,3.5,2
	c0.1,0.4,0.1,0.7,0.1,0.8l-8.7-0.8c-0.1,0-2.7-0.2-6-0.4c-0.2-1-0.6-3.5-0.9-4.9C35.3,14.1,37.9,14.4,38.7,14.7z M19.5,14.1
	c3.8-0.2,7.5-0.2,10.7-0.1c0.2,1.1,0.6,3.5,0.9,4.8c-5-0.3-10.9-0.8-12.3-0.9c0,0,0,0-0.1,0C18.8,16.8,19.2,15.1,19.5,14.1z
	 M10.1,14.9c2.5-0.3,5.1-0.6,7.8-0.7c-0.2,1-0.6,2.4-0.7,3.5c-2.4-0.3-5.8-0.8-7.3-1L10.1,14.9z M5.1,20.8L6.5,21l-0.1,1.7l-1.5,0.1
	C4.9,22.1,5,21.5,5.1,20.8z M14.2,35.1c-2.3,0-4.1-1.9-4.1-4.1c0-2.3,1.9-4.1,4.1-4.1s4.1,1.9,4.1,4.1
	C18.3,33.3,16.5,35.1,14.2,35.1z M54.9,35.1c-2.3,0-4.1-1.9-4.1-4.1c0-2.3,1.9-4.1,4.1-4.1c2.3,0,4.1,1.9,4.1,4.1
	C59,33.3,57.1,35.1,54.9,35.1z M64.2,31.4c-0.4,0.3-1.9,0.5-3.8,0.6c0.1-0.4,0.1-0.7,0.1-1.1c0-3.1-2.5-5.6-5.6-5.6
	c-3.1,0-5.6,2.5-5.6,5.6c0,0.4,0.1,0.9,0.1,1.3c-6.1-0.1-20.7-0.3-24.9-0.4c-1.2,0-2.8-0.2-4.7-0.3c0-0.2,0-0.3,0-0.5
	c0-3.1-2.5-5.6-5.6-5.6c-2.9,0-5.3,2.2-5.6,5c-1.9-0.2-3.4-0.4-4.2-0.5c0-2,0.1-3.9,0.3-5.5l2.4-0.1c0.4,0,0.7-0.3,0.7-0.7L8,20.5
	c0-0.4-0.3-0.7-0.6-0.8l-2-0.3c0.4-1.9,0.8-3.3,0.9-3.9c0.7-0.1,1.5-0.3,2.2-0.4l-0.2,2.1C8.3,17.6,8.6,18,9,18c0.1,0,6.9,1,9.6,1.3
	c2.7,0.3,19.2,1.4,19.9,1.4l9,0.8c0.1,0,0.1,0,0.2,0c0.2,0,0.5-0.1,0.7-0.3c0.3-0.3,0.4-0.7,0.4-1.3c0.9,0.4,1.7,0.7,2.3,0.9
	c1.3,0.3,4.2,0.8,6.7,1.4c0,0,0,0,0,0c0.1,0.1,2.8,2.7,3.7,3.4c0.1,0.1,0.3,0.2,0.5,0.2l2.5,0.2C64.9,28.2,64.6,30.5,64.2,31.4z"/>
<circle cx="14.2" cy="31" r="2.5"/>
<circle cx="54.9" cy="31" r="2.5"/>
</svg>
