<svg xmlns="http://www.w3.org/2000/svg" viewBox="0 0 70 55"><defs><style>.cls-1{font-size:12px;font-family:NotoSans, Noto Sans;}</style></defs><title>category-small</title><g id="Layer_1" data-name="Layer 1"><text class="cls-1" transform="translate(19.76 50.13)">Small</text><path d="M53.47,35.53a4.27,4.27,0,1,1,4.27-4.27A4.27,4.27,0,0,1,53.47,35.53ZM40,28.42l-.46,0a31.22,31.22,0,0,1-7.14-1.19c-5.23-1.75-8.6-5.4-9.23-10,0-.15,0-.3,0-.45C26.64,17,41.87,18.41,49.49,19a.72.72,0,0,0,.09.15l.48.5C51.91,21.6,54.18,24,57.16,24h.14a19.24,19.24,0,0,1,.36,3.34,5.75,5.75,0,0,0-9.47,1.61C45.49,28.83,42.74,28.66,40,28.42ZM37,9.35c3,1,9.44,4.89,14.22,8.28-6.82-.51-24.51-2.1-27.94-2.41A11.3,11.3,0,0,1,26.69,9C30.85,8.75,35,8.7,37,9.35ZM56.88,22.47c-2-.15-3.68-1.72-5.2-3.3l1.74.11A16.21,16.21,0,0,1,56.88,22.47ZM19.09,35.53a4.27,4.27,0,1,1,4.27-4.27c0,.14,0,.28,0,.41s0,.27-.07.44A4.24,4.24,0,0,1,19.09,35.53Zm40-5.35a.74.74,0,0,0,.06-.29v-.47a22.76,22.76,0,0,0-.78-7.19c-.29-.91-1.89-2.44-4.11-4.16a.71.71,0,0,0-.26-.2C48.91,13.92,40.73,9,37.42,7.93c-5-1.66-21.76.74-22.47.84a.75.75,0,1,0,.22,1.48c.06,0,2.32-.33,5.38-.67-1.8,2.68-3.57,5.24-3.89,5.54a4.2,4.2,0,0,1-1.5.41,19.64,19.64,0,0,1,1.15-3.34A.75.75,0,1,0,15,11.57a23.16,23.16,0,0,0-1.8,6.48A22.56,22.56,0,0,0,13,21.16a20.79,20.79,0,0,1-.14,2.94A11.49,11.49,0,0,1,12,26.84a9.16,9.16,0,0,0-1,4.68.75.75,0,0,0,.75.67h.08a.75.75,0,0,0,.67-.82,7.82,7.82,0,0,1,.86-3.95,12.62,12.62,0,0,0,1-3.1,22.09,22.09,0,0,0,.15-3.15,21.36,21.36,0,0,1,.13-2.9c.06-.4.13-.78.2-1.16a5.82,5.82,0,0,0,2.86-.86c.59-.55,3.63-5.08,4.81-6.85l2-.18a10.69,10.69,0,0,0-2.74,8.18c.72,5.2,4.45,9.29,10.24,11.23a32.44,32.44,0,0,0,7.48,1.27l.46,0c2.61.24,5.25.4,7.87.5a5.53,5.53,0,0,0-.07.85H24.86a5.78,5.78,0,1,0-.2,1.5H47.91a5.76,5.76,0,0,0,11.33-1.5A6.13,6.13,0,0,0,59.13,30.18Z"/><circle cx="19.1" cy="31.26" r="2.53"/><circle cx="53.47" cy="31.26" r="2.53"/></g></svg>