<?xml version="1.0" encoding="utf-8"?>
<!-- Generator: Adobe Illustrator 21.0.2, SVG Export Plug-In . SVG Version: 6.00 Build 0)  -->
<svg version="1.1" id="Layer_1" xmlns="http://www.w3.org/2000/svg" xmlns:xlink="http://www.w3.org/1999/xlink" x="0px" y="0px"
	 viewBox="0 0 106 82" style="enable-background:new 0 0 106 82;" xml:space="preserve">
<style type="text/css">
	.st0{fill:#333333;stroke:#000000;stroke-width:0.25;stroke-miterlimit:10;}
</style>
<g>
	<path class="st0" d="M60.3,82.2L77,35.4c-3.7-1.3-6.4-3.4-8-6.4c-1.6-2.9-2.5-6.4-2.5-10.3c0-5.7,1.8-10.2,5.2-13.6
		C75.2,1.7,80,0,86.1,0c6.3,0,11.2,1.7,14.6,5.1c3.4,3.4,5.1,7.8,5.1,13.3c0,3.3-0.6,6.5-1.8,9.7c-1.2,3.2-2.8,6.9-4.7,11.3
		l-20,42.9H60.3z M0,82.2l16.7-46.8c-3.7-1.3-6.4-3.4-8-6.4C7,26,6.2,22.6,6.2,18.7C6.2,13,8,8.5,11.5,5.1C15,1.7,19.8,0,25.9,0
		c6.3,0,11.2,1.7,14.6,5.1c3.4,3.4,5.1,7.8,5.1,13.3c0,3.3-0.6,6.5-1.8,9.7c-1.2,3.2-2.8,6.9-4.7,11.3L19,82.2H0z"/>
</g>
</svg>
