<svg id="Layer_1" data-name="Layer 1" xmlns="http://www.w3.org/2000/svg" viewBox="0 0 126.79 126.79"><defs><style>.cls-1,.cls-2{fill:none;}.cls-1{stroke:#ff820f;stroke-miterlimit:10;}.cls-2{stroke:#000;stroke-linecap:round;stroke-linejoin:round;stroke-width:1.5px;}</style></defs><title>hcw-special-delivery</title><path class="cls-1" d="M63.4,126.29a62.9,62.9,0,1,1,62.9-62.9A63,63,0,0,1,63.4,126.29Z"/><path class="cls-2" d="M84.18,47.72a19.1,19.1,0,0,1-.39,8.39l13.78,13,1,7.26-7.29-.57-1-7.28-7.45-.76L82,62,80.7,60.71c-2,1.91-4,2.41-6.17,2.95a12.49,12.49,0,0,1-11.83-21,12.46,12.46,0,0,1,4.26-3,21,21,0,0,1,1.42,4.67c-.11,0-.22,0-.34,0a4.6,4.6,0,1,0,3.14.39,21.35,21.35,0,0,0-1.46-5.9C76.15,37.8,82.61,41.3,84.18,47.72ZM71.45,74.52V95.78l-4.37,4.64-5.3-5,5-5.3-4.64-4.37,3.82-4.06-.3-5c-2.11-.06-4.35-1.54-6.28-2.71a12.57,12.57,0,0,1-4.24-17.24,16.13,16.13,0,0,1,1-1.52l-.06-.18c2.12,8.67,12,16.34,21.51,10.26C79.68,69.76,71.45,74.52,71.45,74.52ZM68,35.51s-1.82-2.24-3-3.32A21.86,21.86,0,0,0,35.05,64a22.32,22.32,0,0,0,11.78,6.09l1.25-1.33-1.33-1.25c-3.82-.53-7-2.85-9.83-5.5a19.24,19.24,0,0,1-.81-27,18.9,18.9,0,0,1,27-.81,15.64,15.64,0,0,1,2,2.32"/></svg>