<svg id="Layer_1" data-name="Layer 1" xmlns="http://www.w3.org/2000/svg" viewBox="0 0 126.79 126.79"><defs><style>.cls-1,.cls-2{fill:none;}.cls-1{stroke:#ffc82e;stroke-miterlimit:10;}.cls-2,.cls-3{stroke:#000;stroke-linecap:round;stroke-linejoin:round;stroke-width:1.5px;}.cls-3{fill:#fff;}</style></defs><title>hcw-credit-approval</title><path class="cls-1" d="M63.4,126.29a62.9,62.9,0,1,1,62.9-62.9A63,63,0,0,1,63.4,126.29Z"/><rect class="cls-2" x="35.82" y="27.52" width="53.81" height="71.75"/><line class="cls-2" x1="44.79" y1="36.49" x2="80.67" y2="36.49"/><line class="cls-2" x1="44.79" y1="40.97" x2="80.67" y2="40.97"/><line class="cls-2" x1="44.79" y1="45.46" x2="80.67" y2="45.46"/><line class="cls-2" x1="44.79" y1="49.94" x2="71.7" y2="49.94"/><line class="cls-2" x1="44.79" y1="54.43" x2="80.67" y2="54.43"/><line class="cls-2" x1="44.79" y1="79.54" x2="71.7" y2="79.54"/><path class="cls-2" d="M67.85,84.78a5.64,5.64,0,0,1-2.49,6.47,3,3,0,0,1-2.34.4c-1.42-.45-1.9-2.38-1.27-3.72a6.06,6.06,0,0,1,3.38-2.74,10.05,10.05,0,0,1,4.31-.87,5.61,5.61,0,0,1,3.93,1.77,3.92,3.92,0,0,1,.71,4.12,3,3,0,0,1-3.69,1.59,13.57,13.57,0,0,1,4.31-8.19,12.75,12.75,0,0,1-2.56,7.08,16.77,16.77,0,0,1,8.64-5.93A11.36,11.36,0,0,1,79.66,88,3.84,3.84,0,0,1,77,90a2.35,2.35,0,0,1-2.6-1.72,2.53,2.53,0,0,1,1.42-2.5,6.34,6.34,0,0,1,3-.57,6.1,6.1,0,0,1,.06,4,2.89,2.89,0,0,1,4.85-1.88"/><path class="cls-3" d="M104.91,49.77h0a3.63,3.63,0,0,1-.28-2.71,3.65,3.65,0,0,0-1.3-3.91,3.45,3.45,0,0,1-1.41-2.32,3.6,3.6,0,0,0-2.85-3,3.61,3.61,0,0,1-2.29-1.48A3.58,3.58,0,0,0,92.9,35a3.39,3.39,0,0,1-2.68-.35,3.57,3.57,0,0,0-4.09.42,3.58,3.58,0,0,1-2.57.88A3.59,3.59,0,0,0,80,38.07,3.53,3.53,0,0,1,78.11,40a3.52,3.52,0,0,0-2.22,3.45A3.48,3.48,0,0,1,75,46a3.64,3.64,0,0,0-.57,4.16,3.63,3.63,0,0,1,.28,2.71A3.65,3.65,0,0,0,76,56.74a3.45,3.45,0,0,1,1.41,2.32,3.6,3.6,0,0,0,2.85,3,3.61,3.61,0,0,1,2.29,1.48,3.58,3.58,0,0,0,3.87,1.41,3.39,3.39,0,0,1,2.68.35,3.57,3.57,0,0,0,4.09-.42A3.58,3.58,0,0,1,95.75,64a3.59,3.59,0,0,0,3.52-2.15,3.53,3.53,0,0,1,1.94-1.9,3.52,3.52,0,0,0,2.22-3.45,3.48,3.48,0,0,1,.92-2.53A3.64,3.64,0,0,0,104.91,49.77Z"/><polygon class="cls-3" points="86.84 56.25 81.24 50.65 82.65 49.24 86.84 53.46 96.67 43.64 98.08 45.05 86.84 56.25"/></svg>