<svg id="Layer_1" data-name="Layer 1" xmlns="http://www.w3.org/2000/svg" viewBox="0 0 126.79 126.79"><defs><style>.cls-1,.cls-2{fill:none;}.cls-1{stroke:#000;stroke-linecap:round;stroke-linejoin:round;stroke-width:1.5px;}.cls-2{stroke:#ff6161;stroke-miterlimit:10;}</style></defs><title>hcw-financial-application</title><rect class="cls-1" x="36.49" y="27.52" width="53.81" height="71.75"/><line class="cls-1" x1="45.46" y1="36.49" x2="81.33" y2="36.49"/><line class="cls-1" x1="45.46" y1="40.97" x2="81.33" y2="40.97"/><line class="cls-1" x1="45.46" y1="45.46" x2="81.33" y2="45.46"/><line class="cls-1" x1="45.46" y1="49.94" x2="72.36" y2="49.94"/><line class="cls-1" x1="45.46" y1="54.43" x2="81.33" y2="54.43"/><line class="cls-1" x1="45.46" y1="79.54" x2="72.36" y2="79.54"/><path class="cls-1" d="M68.51,84.78A5.64,5.64,0,0,1,66,91.26a3,3,0,0,1-2.34.4c-1.42-.45-1.9-2.38-1.27-3.72a6.06,6.06,0,0,1,3.38-2.74,10.05,10.05,0,0,1,4.31-.87A5.61,5.61,0,0,1,74,86.09a3.92,3.92,0,0,1,.71,4.12A3,3,0,0,1,71,91.81a13.57,13.57,0,0,1,4.31-8.19A12.75,12.75,0,0,1,72.8,90.7a16.77,16.77,0,0,1,8.64-5.93A11.36,11.36,0,0,1,80.32,88a3.84,3.84,0,0,1-2.69,2A2.35,2.35,0,0,1,75,88.26a2.53,2.53,0,0,1,1.42-2.5,6.34,6.34,0,0,1,3-.57,6.1,6.1,0,0,1,.06,4,2.89,2.89,0,0,1,4.85-1.88"/><path class="cls-2" d="M63.4,126.29a62.9,62.9,0,1,1,62.9-62.9A63,63,0,0,1,63.4,126.29Z"/></svg>