<svg id="Layer_1" data-name="Layer 1" xmlns="http://www.w3.org/2000/svg" viewBox="0 0 126.79 126.79"><defs><style>.cls-1,.cls-2,.cls-3,.cls-4{fill:none;}.cls-1{stroke:#4cb8aa;}.cls-1,.cls-3{stroke-miterlimit:10;}.cls-2,.cls-3{stroke:#000;stroke-width:1.5px;}.cls-2,.cls-3,.cls-4{stroke-linecap:round;}.cls-2,.cls-4{stroke-linejoin:round;}.cls-4{stroke:#fff;stroke-width:5px;}.cls-5{fill:#fff;}</style></defs><title>hcw-order</title><path class="cls-1" d="M63.4,126.29a62.9,62.9,0,1,1,62.9-62.9A63,63,0,0,1,63.4,126.29Z"/><path class="cls-2" d="M90.92,72.6h.63a29,29,0,0,0,9.21-.3l-1.11-2.44s1.38-2.77.32-5.17-6.38-4.51-10.24-5.54c-2.3-.61-4.82-1.14-6.48-1.46A9.52,9.52,0,0,1,80,56.38a52,52,0,0,0-27.14-7.78,173.39,173.39,0,0,0-18.35,1.22C32.82,50,28,48.59,28,48.59"/><path class="cls-2" d="M41.47,72.14c6.51,0,28.21.23,40.81.36"/><path class="cls-2" d="M30.76,52.75s-4.25,2.91-4.25,6c0,2.06-.47,3.81-.47,5.61s.31,5.19,1.1,5.74a12.75,12.75,0,0,0,4.7,1.42"/><path class="cls-2" d="M33.83,49.81a8.54,8.54,0,0,0,7.33,5.11C47.08,55.27,83,57.64,83,57.64"/><line class="cls-2" x1="49.05" y1="49.01" x2="49.71" y2="55.12"/><circle class="cls-2" cx="36.84" cy="68.98" r="5.61"/><circle class="cls-2" cx="86.64" cy="68.98" r="5.61"/><line class="cls-2" x1="51.75" y1="59.92" x2="56.17" y2="60.21"/><path class="cls-3" d="M33.72,54.31l-2.09,2.55A5.71,5.71,0,0,1,29,58.68l-2.56.89"/><path class="cls-4" d="M56.91,73.38A11.49,11.49,0,1,1,72.4,62.7a11.37,11.37,0,0,1-2.47,7"/><path class="cls-2" d="M56.91,73.38A11.49,11.49,0,1,1,72.4,62.7a11.37,11.37,0,0,1-2.47,7"/><path class="cls-4" d="M78.71,69a18.63,18.63,0,0,0,1.12-6.28,18.94,18.94,0,1,0-24.47,18"/><path class="cls-2" d="M78.71,69a18.63,18.63,0,0,0,1.12-6.28,18.94,18.94,0,1,0-24.47,18"/><path class="cls-4" d="M59.33,66.64a4.53,4.53,0,1,1,6.1-4.21,4.48,4.48,0,0,1-1,2.77"/><path class="cls-2" d="M59.33,66.64a4.53,4.53,0,1,1,6.1-4.21,4.48,4.48,0,0,1-1,2.77"/><path class="cls-5" d="M81,88.89l-.17-.67a20.79,20.79,0,0,0-.72-2.41c-.09-.23-.2-.46-.32-.69a3.82,3.82,0,0,1-.37-.91c-.13-.77-.22-1.6-.31-2.4a30,30,0,0,0-.51-3.47,27.62,27.62,0,0,0-1.31-3.93,2.91,2.91,0,0,0-2.73-1.88,6.33,6.33,0,0,0-1.09,0l-.41.05-2,.26-.33,0-2.93.38c-.3,0-.6.05-.85-.58l-2-5.25a3.4,3.4,0,0,0-1.74-1.93,2.14,2.14,0,0,0-.91-.21,2.09,2.09,0,0,0-1.88,1.08,2.46,2.46,0,0,0-.36,2.41l1.25,4,.83,3.08-.27-.19a2.11,2.11,0,0,0-2.25,0,1.82,1.82,0,0,0-.92,2,6.78,6.78,0,0,0,.69,1.91l.18.3.05.09c.27.45.55.9.83,1.34l.58.93.13.21.29.5A13.37,13.37,0,0,0,67,88.51l0,0a5.06,5.06,0,0,1,.35,1c0,.13.07.24.09.31l.35,1,.4,1.33a2.13,2.13,0,0,0,2.19,1.66,7.45,7.45,0,0,0,2.16-.43l.43-.12,6.5-1.77A2,2,0,0,0,81,88.89Z"/><path class="cls-4" d="M81,88.89l-.17-.67a20.79,20.79,0,0,0-.72-2.41c-.09-.23-.2-.46-.32-.69a3.82,3.82,0,0,1-.37-.91c-.13-.77-.22-1.6-.31-2.4a30,30,0,0,0-.51-3.47,27.62,27.62,0,0,0-1.31-3.93,2.91,2.91,0,0,0-2.73-1.88,6.33,6.33,0,0,0-1.09,0l-.41.05-2,.26-.33,0-2.93.38c-.3,0-.6.05-.85-.58l-2-5.25a3.4,3.4,0,0,0-1.74-1.93,2.14,2.14,0,0,0-.91-.21,2.09,2.09,0,0,0-1.88,1.08,2.46,2.46,0,0,0-.36,2.41l1.25,4,.83,3.08-.27-.19a2.11,2.11,0,0,0-2.25,0,1.82,1.82,0,0,0-.92,2,6.78,6.78,0,0,0,.69,1.91l.18.3.05.09c.27.45.55.9.83,1.34l.58.93.13.21.29.5A13.37,13.37,0,0,0,67,88.51l0,0a5.06,5.06,0,0,1,.35,1c0,.13.07.24.09.31l.35,1,.4,1.33a2.13,2.13,0,0,0,2.19,1.66,7.45,7.45,0,0,0,2.16-.43l.43-.12,6.5-1.77A2,2,0,0,0,81,88.89Z"/><path class="cls-2" d="M81,88.89l-.17-.67a20.79,20.79,0,0,0-.72-2.41c-.09-.23-.2-.46-.32-.69a3.82,3.82,0,0,1-.37-.91c-.13-.77-.22-1.6-.31-2.4a30,30,0,0,0-.51-3.47,27.62,27.62,0,0,0-1.31-3.93,2.91,2.91,0,0,0-2.73-1.88,6.33,6.33,0,0,0-1.09,0l-.41.05-2,.26-.33,0-2.93.38c-.3,0-.6.05-.85-.58l-2-5.25a3.4,3.4,0,0,0-1.74-1.93,2.14,2.14,0,0,0-.91-.21,2.09,2.09,0,0,0-1.88,1.08,2.46,2.46,0,0,0-.36,2.41l1.25,4,.83,3.08-.27-.19a2.11,2.11,0,0,0-2.25,0,1.82,1.82,0,0,0-.92,2,6.78,6.78,0,0,0,.69,1.91l.18.3.05.09c.27.45.55.9.83,1.34l.58.93.13.21.29.5A13.37,13.37,0,0,0,67,88.51l0,0a5.06,5.06,0,0,1,.35,1c0,.13.07.24.09.31l.35,1,.4,1.33a2.13,2.13,0,0,0,2.19,1.66,7.45,7.45,0,0,0,2.16-.43l.43-.12,6.5-1.77A2,2,0,0,0,81,88.89Z"/></svg>