<?xml version="1.0" encoding="utf-8"?>
<!-- Generator: Adobe Illustrator 21.1.0, SVG Export Plug-In . SVG Version: 6.00 Build 0)  -->
<svg version="1.1" id="Capa_1" xmlns="http://www.w3.org/2000/svg" xmlns:xlink="http://www.w3.org/1999/xlink" x="0px" y="0px"
	 viewBox="0 0 436.2 473.8" style="enable-background:new 0 0 436.2 473.8;" xml:space="preserve">
<style type="text/css">
	.st0{fill:#194D67;}
</style>
<g>
	<path class="st0" d="M436,111.7c0-1.8-0.4-3.6-1.2-5.3c-1.6-3.4-4.7-5.7-8.1-6.4L223,1.2c-3.3-1.6-7.2-1.6-10.5,0L6.8,100.9
		c-4,1.9-6.6,5.9-6.8,10.4v0.1c0,0.1,0,0.2,0,0.4V362c0,4.6,2.6,8.8,6.8,10.8l205.7,99.7c0.1,0,0.1,0,0.2,0.1
		c0.3,0.1,0.6,0.2,0.9,0.4c0.1,0,0.2,0.1,0.4,0.1c0.3,0.1,0.6,0.2,0.9,0.3c0.1,0,0.2,0.1,0.3,0.1c0.3,0.1,0.7,0.1,1,0.2
		c0.1,0,0.2,0,0.3,0c0.4,0,0.9,0.1,1.3,0.1c0.4,0,0.9,0,1.3-0.1c0.1,0,0.2,0,0.3,0c0.3,0,0.7-0.1,1-0.2c0.1,0,0.2-0.1,0.3-0.1
		c0.3-0.1,0.6-0.2,0.9-0.3c0.1,0,0.2-0.1,0.4-0.1c0.3-0.1,0.6-0.2,0.9-0.4c0.1,0,0.1,0,0.2-0.1l206.3-100c4.1-2,6.8-6.2,6.8-10.8
		V112C436,111.9,436,111.8,436,111.7z M217.7,25.3l178.4,86.5l-65.7,31.9L152,57.2L217.7,25.3z M217.7,198.3L39.3,111.8l85.2-41.3
		L302.9,157L217.7,198.3z M24,131.1l181.7,88.1v223.3L24,354.4V131.1z M229.7,442.5V219.2l85.3-41.4v58.4c0,6.6,5.4,12,12,12
		s12-5.4,12-12v-70.1l73-35.4V354L229.7,442.5z"/>
</g>
</svg>
