<svg id="Capa_1" data-name="Capa 1" xmlns="http://www.w3.org/2000/svg" viewBox="0 0 512 407.79"><defs><style>.cls-1{fill:#47256d;}</style></defs><title>icon-buy</title><path class="cls-1" d="M320.13,0H119.73a119.72,119.72,0,1,0,0,239.45h200.4a121.21,121.21,0,0,0,17.1-1.21,7.5,7.5,0,0,0-2.12-14.85,106.14,106.14,0,0,1-15,1.06H119.73a104.73,104.73,0,1,1,0-209.45h200.4a104.76,104.76,0,0,1,92.35,154.16,7.5,7.5,0,1,0,13.22,7.09A119.77,119.77,0,0,0,320.13,0Z"/><path class="cls-1" d="M151.47,116.43a31.52,31.52,0,0,0-23.73-52.31H95.68a7.5,7.5,0,0,0-7.5,7.5v96.19a7.5,7.5,0,0,0,7.5,7.5h40.08a31.54,31.54,0,0,0,15.71-58.89Zm-48.29-37.3h24.57a16.55,16.55,0,0,1,0,33.1H103.18Zm32.58,81.19H103.18v-33.1h32.58a16.55,16.55,0,0,1,0,33.1Z"/><path class="cls-1" d="M248,64.13a7.5,7.5,0,0,0-7.5,7.5v68.14a20.56,20.56,0,1,1-41.11,0V71.63a7.5,7.5,0,0,0-15,0v68.14a35.56,35.56,0,1,0,71.11,0V71.63A7.5,7.5,0,0,0,248,64.13Z"/><path class="cls-1" d="M347.9,65.12a7.5,7.5,0,0,0-10.23,2.79l-25.55,44.72L286.56,67.91a7.5,7.5,0,1,0-13,7.44l31.08,54.38v38.09a7.5,7.5,0,0,0,15,0V129.73l31.08-54.38A7.5,7.5,0,0,0,347.9,65.12Z"/><path class="cls-1" d="M509.42,283.87,372,164.44a7.5,7.5,0,0,0-12.42,5.68l.4,182.09a7.5,7.5,0,0,0,12.93,5.16l48.35-50.72,44.24,96.76a7.5,7.5,0,1,0,13.64-6.24l-44.24-96.76,70-3.39a7.5,7.5,0,0,0,4.56-13.15ZM423.08,286a7.5,7.5,0,0,0-5.07,2.32L374.9,333.5l-.33-146.91,110.9,96.36Z"/></svg>