<?xml version="1.0" encoding="utf-8"?>
<!-- Generator: Adobe Illustrator 21.1.0, SVG Export Plug-In . SVG Version: 6.00 Build 0)  -->
<svg version="1.1" id="Capa_1" xmlns="http://www.w3.org/2000/svg" xmlns:xlink="http://www.w3.org/1999/xlink" x="0px" y="0px"
	 viewBox="0 0 70.1 70.1" style="enable-background:new 0 0 70.1 70.1;" xml:space="preserve">
<style type="text/css">
	.st0{fill:#47256D;}
</style>
<g>
	<g>
		<path class="st0" d="M65.1,32.2h-7h-0.9c-2.1,0-3.7,1.7-3.7,3.7v0.4c0,2.1,1.7,3.7,3.7,3.7h7h0.9c2.1,0,3.7-1.7,3.7-3.7l0-0.4
			C68.8,33.9,67.2,32.2,65.1,32.2z"/>
		<path class="st0" d="M65.1,22.9h-1.6V4.7c0-2.6-2.1-4.7-4.7-4.7H27.5c-2.6,0-4.7,2.1-4.7,4.7v13C16.4,21.3,9.9,25,9.9,25
			c-3.5,1.5-8.7,6.1-8.7,17.2c0,1,0.1,1.9,0.2,2.8c0,0.3,0.1,0.5,0.1,0.8c0.1,0.6,0.2,1.3,0.3,1.9c0,0.2,0.1,0.4,0.1,0.6
			c0.2,0.7,0.4,1.3,0.6,1.9C2.7,50.5,2.8,50.7,3,51c0.1,0.3,0.3,0.6,0.4,0.9c0.2,0.3,0.3,0.6,0.5,0.9C4,52.9,4,53,4.1,53
			c4.6,6.9,13,6.9,13,6.9h5.7v5.4c0,2.6,2.1,4.7,4.7,4.7h31.2c2.6,0,4.7-2.1,4.7-4.7v-6.6h0.7v0h0.9c2.1,0,3.8-1.7,3.7-3.7l0-0.4
			c0-2.1-1.7-3.7-3.7-3.7h-0.9h-6.1h-0.9c-2.1,0-3.7,1.7-3.7,3.7V55c0,2.1,1.7,3.7,3.7,3.7h3v2.5H26v-34c1.7-1.1,3.3-2.1,4.2-2.8
			c4.6-3.5,8.9-6.4,9.5-8.9c0.8-3.3-1.8-6.1-6.2-3.8c-1.4,0.7-4.3,2.3-7.5,4.1V7.5l34.1,0v15.3h-2v0h-0.9c-2.1,0-3.7,1.7-3.7,3.7V27
			c0,2.1,1.7,3.7,3.7,3.7h0.9h6.1h0.9c2.1,0,3.7-1.7,3.7-3.7v-0.4C68.8,24.5,67.2,22.9,65.1,22.9z M43.1,63c1.3,0,2.4,1.1,2.4,2.4
			c0,1.3-1.1,2.4-2.4,2.4c-1.3,0-2.4-1.1-2.4-2.4C40.7,64,41.8,63,43.1,63z M48.1,4.6h-10c-0.3,0-0.6-0.3-0.6-0.6
			c0-0.3,0.3-0.6,0.6-0.6h10c0.3,0,0.6,0.3,0.6,0.6C48.7,4.3,48.4,4.6,48.1,4.6z"/>
		<path class="st0" d="M65.1,41.5h-0.9h-7c-2.1,0-3.7,1.7-3.7,3.7v0.4c0,2.1,1.7,3.7,3.7,3.7h0.9h6.1h0.9c2.1,0,3.7-1.7,3.7-3.7
			v-0.4C68.8,43.2,67.2,41.5,65.1,41.5z"/>
	</g>
</g>
</svg>
