<?xml version="1.0" encoding="utf-8"?>
<!-- Generator: Adobe Illustrator 21.1.0, SVG Export Plug-In . SVG Version: 6.00 Build 0)  -->
<svg version="1.1" id="Capa_1" xmlns="http://www.w3.org/2000/svg" xmlns:xlink="http://www.w3.org/1999/xlink" x="0px" y="0px"
	 viewBox="0 0 36.2 36.2" style="enable-background:new 0 0 36.2 36.2;" xml:space="preserve">
<style type="text/css">
	.st0{fill:#194D67;}
</style>
<g>
	<path class="st0" d="M10.3,26.2v-23h14.6V21h1.4V2c0-1.1-0.9-2-2-2H10.9c-1.1,0-2,0.9-2,2V28c0,1.1,0.9,2,2,2h3.6l-2-3.8L10.3,26.2
		L10.3,26.2z M15.5,1.5h4.3c0.1,0,0.2,0.1,0.2,0.2C20,1.8,19.9,2,19.7,2h-4.3c-0.1,0-0.2-0.1-0.2-0.2C15.2,1.6,15.3,1.5,15.5,1.5z
		 M27.3,23.7v-0.2c0-0.6-0.5-1-1-1h-0.1c-0.6,0-1,0.5-1,1v0.3v0.9h-0.4v-0.9v-0.3c0-0.6-0.5-1-1-1h-0.1c-0.6,0-1,0.5-1,1v1.1h-0.4
		v-1.1c0-0.6-0.5-1-1-1h-0.1c-0.6,0-1,0.5-1,1v0.3v0.9h-0.3V22c2.1-0.5,3.6-2.4,3.6-4.7c0-2.7-2.2-4.9-4.9-4.9s-4.9,2.2-4.9,4.9
		c0,2.4,1.7,4.3,3.9,4.8v2.6v1.2v2.4c-1.1-1.2-1.7-2.4-2.4-2.6c-0.9-0.2-1.7,0.5-1,1.7c0.6,1.2,3.6,6.4,3.6,6.4
		c0.4,1,1.7,2.4,4.7,2.4c4.8,0,4.8-4.3,4.8-4.3v-6.2c0,0,0,0,0,0L27.3,23.7L27.3,23.7z M18.8,17l-0.1,0c-0.6,0-1,0.5-1,1v1.1
		c-0.7-0.3-1.2-1-1.2-1.9c0-1.2,0.9-2.1,2.1-2.1s2.1,0.9,2.1,2.1c0,0.7-0.4,1.3-0.9,1.7v-1C19.8,17.5,19.3,17,18.8,17z M14.2,17.3
		c0-2.4,2-4.4,4.4-4.4s4.4,2,4.4,4.4c0,2-1.3,3.6-3.1,4.2v-1.3c1.1-0.5,1.9-1.6,1.9-2.8c0-1.7-1.4-3.1-3.1-3.1s-3.1,1.4-3.1,3.1
		c0,1.4,0.9,2.5,2.2,2.9v1.3C15.7,21.1,14.2,19.4,14.2,17.3z"/>
</g>
</svg>
