<?xml version="1.0" encoding="utf-8"?>
<!-- Generator: Adobe Illustrator 21.1.0, SVG Export Plug-In . SVG Version: 6.00 Build 0)  -->
<svg version="1.1" id="Capa_1" xmlns="http://www.w3.org/2000/svg" xmlns:xlink="http://www.w3.org/1999/xlink" x="0px" y="0px"
	 viewBox="0 0 283.3 407.9" style="enable-background:new 0 0 283.3 407.9;" xml:space="preserve">
<style type="text/css">
	.st0{fill:#9D1D24;}
</style>
<g>
	<g>
		<path class="st0" d="M99.1,183.2h84.6v39.7h-76.3c3.4,7.9,5.1,15.8,5.1,23.6c0,15.6-3.7,32-11.1,49.4
			c-7.4,17.4-19.7,35.1-36.7,53.2c14.1-3.9,27-5.9,38.7-5.9c14.9,0,31.6,2.2,50.2,6.7c30.8,7.3,51.6,11,62.6,11
			c13.2,0,30.4-5,51.6-15l15.6,44.3c-16.5,7-29.2,11.5-38.3,13.7c-9,2.1-18,3.2-27,3.2c-7.5,0-15.1-0.7-22.8-2.1
			c-4.8-0.9-16.4-4.2-34.8-9.8c-18.4-5.6-30.2-9-35.6-10.1c-8.4-1.4-16.8-2.1-25.2-2.1c-12.9,0-26.6,2.2-41.2,6.7
			c-14.6,4.5-27.9,10.6-39.9,18.3L0,361.5c17.2-9.5,31.8-23,43.8-40.7c12-17.6,18-39.2,18-64.6c0-10.9-1.5-22-4.6-33.3H4.6v-39.7
			h41.4c-5.9-20-9.7-34.7-11.3-43.9c-1.6-9.2-2.4-18.2-2.4-27C32.2,75,46,45.9,73.6,25C95.8,8.3,122.6,0,154.1,0
			c32.4,0,59.1,8.9,80.2,26.7c21,17.8,34,42.8,38.8,75.1L225,109c-2.7-21.5-10.7-38.4-24-50.8c-13.3-12.4-29.3-18.5-47.9-18.5
			c-19.9,0-36.4,6.4-49.5,19.2c-13.2,12.8-19.7,28.2-19.7,46.3C83.8,125.1,88.9,151.1,99.1,183.2L99.1,183.2z"/>
	</g>
</g>
</svg>
