<svg xmlns="http://www.w3.org/2000/svg" viewBox="0 0 15 15.35"><title>icon-info</title><g id="Layer_1" data-name="Layer 1"><path d="M7.5.35A7.5,7.5,0,1,0,15,7.85,7.5,7.5,0,0,0,7.5.35ZM5.58,12.57A.88.88,0,0,1,4.75,12,1.53,1.53,0,0,1,5,11.36L6.85,7.73c.05-.12.05-.2,0-.2a5.49,5.49,0,0,0-1.62.83c-.22,0-.36-.22-.29-.35A6.34,6.34,0,0,1,8.56,6.33c.4,0,.84.32.84.64a2,2,0,0,1-.24.64L7.27,11.19c-.07.13-.05.22.07.22a5.82,5.82,0,0,0,1.71-.92c.22,0,.4.16.34.35A5.93,5.93,0,0,1,5.58,12.57ZM9,5.18c-.67,0-1.07-.36-1.07-.83A1.33,1.33,0,0,1,9.34,3.14c.62,0,1,.31,1,.86A1.25,1.25,0,0,1,9,5.18Z"/></g></svg>