<?xml version="1.0" encoding="utf-8"?>
<!-- Generator: Adobe Illustrator 21.1.0, SVG Export Plug-In . SVG Version: 6.00 Build 0)  -->
<svg version="1.1" id="Capa_1" xmlns="http://www.w3.org/2000/svg" xmlns:xlink="http://www.w3.org/1999/xlink" x="0px" y="0px"
	 viewBox="0 0 38.9 38.9" style="enable-background:new 0 0 38.9 38.9;" xml:space="preserve">
<style type="text/css">
	.st0{fill:#9D1D24;}
</style>
<g>
	<path class="st0" d="M25.3,2.9l-2,5.1h-2.2c0,0,0,0,0,0h-6.4c-2.4,0-4.3,1.8-4.3,4v0.1l-2.3,0v-1.9H0v17.2h8.1V26l2.4,0
		c0.5,1.7,2.2,2.9,4.2,2.9h0.5l-0.7,1.7L28.1,36L38.9,8.2L25.3,2.9z M14.6,27c-1.3,0-2.3-0.9-2.3-1.9v-1l-4.3,0v-9.9l4.3,0v-2.1
		c0-1.1,1-2,2.3-2h10.6c0,0,0,0,0,0c0.4,0,0.7,0.4,0.7,0.9c0,0.5-0.3,0.9-0.7,0.9l-4.2,0l-0.2,0c-0.5,0-0.9,0.5-0.9,1
		c0,0.8,0,0.9-1.3,0.9H15c-0.6,0-1,0.4-1,1c0,0.6,0.4,1,1,1h3.6c0.6,0,1.2-0.1,1.8-0.3L15.9,27L14.6,27L14.6,27z M24.9,24.1
		c-2.6-1-3.9-3.9-2.9-6.5s3.9-3.9,6.5-2.9c2.6,1,3.9,3.9,2.9,6.5C30.4,23.9,27.5,25.1,24.9,24.1z M26.7,18.9l0.9,0.4l-0.8,1.7
		l0.2,0.1l0.3,0.1l0.4,0.3c0.1,0.1,0.2,0.3,0.2,0.6l0,0l1.7-3.8l1,0.4l-2.3,5.1l-1-0.4c0.1-0.4-0.1-0.8-0.8-1.1l-0.4-0.2L26,22.9
		l-0.9-0.4l0.3-0.8l-0.9-0.4l-0.3-0.1l-0.7-0.4c-0.7-0.5-0.8-1.4-0.2-2.6c0.4-0.9,0.8-1.4,1.2-1.6c0.4-0.2,0.9-0.1,1.6,0.2l0.3,0.1
		L25.9,18L25.8,18c-0.4-0.2-0.6-0.2-0.8-0.1c-0.2,0.1-0.3,0.3-0.5,0.7c-0.2,0.5-0.3,0.8-0.2,1c0.1,0.2,0.3,0.4,0.7,0.6l1,0.5
		L26.7,18.9z"/>
</g>
</svg>
