<?xml version="1.0" encoding="utf-8"?>
<!-- Generator: Adobe Illustrator 20.1.0, SVG Export Plug-In . SVG Version: 6.00 Build 0)  -->
<svg version="1.1" id="Layer_1" xmlns="http://www.w3.org/2000/svg" xmlns:xlink="http://www.w3.org/1999/xlink" x="0px" y="0px"
	 viewBox="0 0 91.5 96.2" style="enable-background:new 0 0 91.5 96.2;" xml:space="preserve">
<style type="text/css">
	.st0{fill:#F2F2F2;}
	.st1{fill:none;stroke:#A3A3A3;stroke-width:1.5;stroke-linecap:round;stroke-linejoin:round;}
</style>
<title>keys</title>
<g id="Icon_Sizes">
	<rect x="-4.3" y="-2" class="st0" width="100" height="100"/>
</g>
<g id="Layer_1_1_">
	<path class="st1" d="M72.1,28.1c0.6,3.5,0.5,7.2-0.5,10.6l17.5,16.5l1.2,9.2l-9.2-0.7l-1.2-9.2l-9.5-1l-1-7.3l-1.7-1.6
		c-2.5,2.4-5,3.1-7.8,3.7c-8.6,2-17.3-3.3-19.5-11.9c-1.3-5.4,0.8-11,4.4-14.8c1.5-1.6,3.4-2.9,5.4-3.8c0.8,1.9,1.4,3.9,1.8,5.9
		c-0.1,0-0.3,0-0.4,0.1c-3.1,0.7-5.1,3.9-4.4,7c0.7,3.1,3.9,5.1,7,4.4c3.1-0.7,5.1-3.9,4.4-7c-0.4-1.7-1.5-3.1-3-3.9
		c-0.3-2.6-0.9-5.1-1.8-7.5C61.9,15.5,70.1,19.9,72.1,28.1z M55.9,62.1v27L50.3,95l-6.7-6.3L50,82L44,76.4l4.9-5.2L48.5,65
		c-2.7-0.1-5.5-2-8-3.5c-7.5-4.6-9.9-14.4-5.4-21.9c0.4-0.7,0.8-1.3,1.3-1.9c0-0.1,0-0.2-0.1-0.2c2.7,11,15.3,20.8,27.3,13
		C66.4,56.1,55.9,62.1,55.9,62.1L55.9,62.1z M51.5,12.6c0,0-2.3-2.9-3.8-4.2C36.5-1.9,19.1-1.4,8.5,9.5C-1.9,20.8-1.4,38.2,9.7,48.8
		c4.1,3.9,9.4,7,15,7.7l1.6-1.7l-1.7-1.6c-4.9-0.7-8.9-3.6-12.5-7C2.4,37,2,21.7,11.1,11.9c9-9.8,24.2-10.4,33.9-1.4
		c0.1,0.1,0.3,0.3,0.4,0.4c0.9,0.9,1.8,1.9,2.6,2.9"/>
</g>
</svg>
