<?xml version="1.0" encoding="utf-8"?>
<!-- Generator: Adobe Illustrator 21.0.2, SVG Export Plug-In . SVG Version: 6.00 Build 0)  -->
<svg version="1.1" id="Layer_1" xmlns="http://www.w3.org/2000/svg" xmlns:xlink="http://www.w3.org/1999/xlink" x="0px" y="0px"
	 viewBox="0 0 106 82" style="enable-background:new 0 0 106 82;" xml:space="preserve">
<style type="text/css">
	.st0{fill:#333333;stroke:#000000;stroke-width:0.25;stroke-miterlimit:10;}
</style>
<g>
	<path class="st0" d="M45.5,0L28.8,46.8c3.7,1.3,6.4,3.4,8,6.4c1.6,2.9,2.5,6.4,2.5,10.3c0,5.7-1.8,10.2-5.2,13.6
		c-3.5,3.4-8.3,5.1-14.4,5.1c-6.3,0-11.2-1.7-14.6-5.1C1.7,73.8,0,69.3,0,63.9c0-3.3,0.6-6.5,1.8-9.7C3,51,4.6,47.3,6.6,42.9L26.5,0
		H45.5z M105.8,0L89.1,46.8c3.7,1.3,6.4,3.4,8,6.4c1.6,2.9,2.5,6.4,2.5,10.3c0,5.7-1.8,10.2-5.2,13.6c-3.5,3.4-8.3,5.1-14.4,5.1
		c-6.3,0-11.2-1.7-14.6-5.1c-3.4-3.4-5.1-7.8-5.1-13.3c0-3.3,0.6-6.5,1.8-9.7c1.2-3.2,2.8-6.9,4.7-11.3L86.8,0H105.8z"/>
</g>
</svg>
