<svg id="Layer_1" data-name="Layer 1" xmlns="http://www.w3.org/2000/svg" viewBox="0 0 22 24"><title>phone-icon</title><path id="phone-4" d="M19.89,23.65C12.52,27,1.09,4.79,8.29,1L10.4,0l3.49,6.82-2.08,1c-2.19,1.17,2.37,10.08,4.61,9l2.06-1L22,22.62Zm-9.44-2.26C9,22.46,6.95,22.56,6.33,21.5A4,4,0,0,1,6.2,18.7,5.21,5.21,0,0,0,5.91,15C4.69,12.92,2,13,0,14.32l1,1.46a3.43,3.43,0,0,1,2.49-.61c1.65.39,1.15,2.53,1,3.23a5.55,5.55,0,0,0,.34,4c1.24,2.14,4.58,2.08,6.84.32C11.24,22.28,10.84,21.85,10.45,21.39Z"/></svg>