<?xml version="1.0" encoding="utf-8"?>
<!-- Generator: Adobe Illustrator 20.1.0, SVG Export Plug-In . SVG Version: 6.00 Build 0)  -->
<svg version="1.1" id="Layer_1" xmlns="http://www.w3.org/2000/svg" xmlns:xlink="http://www.w3.org/1999/xlink" x="0px" y="0px"
	 viewBox="0 0 512 512" style="enable-background:new 0 0 512 512;" xml:space="preserve">
<style type="text/css">
	.st0{fill:#FFFFFF;}
</style>
<g>
	<g>
		<path class="st0" d="M0,307.9C0,378,57,435,127.2,435h61.6c7.1,0,12.9-5.8,12.9-12.9c0-7.1-5.8-12.9-12.9-12.9h-61.6
			c-55.9,0-101.3-45.4-101.3-101.3s45.4-101.3,101.3-101.3c0.7,0,348.7,0,348.7,0l-73.3,82.2c-4.8,5.3-4.3,13.5,1,18.3
			c2.5,2.2,5.5,3.3,8.6,3.3c3.6,0,7.1-1.5,9.7-4.3l82.6-92.6c10.1-11.3,10.1-28.3,0-39.6l-82.6-92.6c-4.8-5.3-12.9-5.8-18.3-1
			c-5.3,4.8-5.8,12.9-1,18.3l73.3,82.2c0,0-348,0-348.7,0C57,180.7,0,237.7,0,307.9z"/>
	</g>
</g>
</svg>
