<svg id="Layer_1" data-name="Layer 1" xmlns="http://www.w3.org/2000/svg" viewBox="0 0 968 362"><defs><style>.cls-1{fill:#4e2b76;}.cls-2,.cls-4{fill:#fff;}.cls-3{fill:#a91f26;}.cls-4{font-size:127px;font-family:Arial-Black, Arial Black;letter-spacing:0.2em;}.cls-5{fill:#231f20;}</style></defs><title>Artboard 2</title><circle class="cls-1" cx="181.05" cy="182.12" r="174.05"/><circle class="cls-2" cx="181.05" cy="182.12" r="143.1"/><circle class="cls-1" cx="181.05" cy="182.12" r="114.6"/><circle class="cls-3" cx="181.05" cy="182.12" r="81.03"/><path class="cls-3" d="M447.14,169.56l-18.5-22.1H408v22.1h-20.3v-70h49.1c17.9,0,31.8,7.9,31.8,23.9,0,11.7-7.4,19.1-18.4,22.3l20.6,23.8Zm-11.8-36.9c7.3,0,12.6-2,12.6-8.8s-5.3-8.8-12.6-8.8h-27.4v17.6Z"/><path class="cls-3" d="M556.44,154v15.6H481.74v-70h73.6v15.6h-53.5v11.5h44.1v14.9h-44.1V154Z"/><path class="cls-3" d="M685.64,99.56l-25.5,70h-20.3l-16.3-48.7-16.4,48.7H587l-25.6-70h20.9l15.3,48.1,16.7-48.1h18.8l16.7,48.1,15.3-48.1Z"/><path class="cls-3" d="M746.74,156.16h-38.4l-6.6,13.4h-21.4l36.2-70h22.3l36.2,70h-21.7Zm-7.1-14.5-12.1-24.8-12.2,24.8Z"/><path class="cls-3" d="M842.14,169.56l-18.5-22.1H803v22.1h-20.3v-70h49.1c17.9,0,31.8,7.9,31.8,23.9,0,11.7-7.4,19.1-18.4,22.3l20.6,23.8Zm-11.8-36.9c7.3,0,12.6-2,12.6-8.8s-5.3-8.8-12.6-8.8h-27.4v17.6Z"/><path class="cls-3" d="M959.84,134.56c0,22-17.1,35-44,35h-39.1v-70h39.1C942.74,99.56,959.84,112.56,959.84,134.56Zm-20.8,0c0-12.4-9.8-18.8-24.8-18.8h-17.1v37.6h17.1C929.24,153.36,939,147,939,134.56Z"/><text class="cls-4" transform="translate(152.93 239.34) rotate(-18.12)">£</text><path class="cls-5" d="M466,205H436.9v53.7H416.5V205H387.6v-16.3H466Z"/><path class="cls-5" d="M522.6,245.27H484.2l-6.6,13.4H456.2l36.2-70h22.3l36.2,70H529.2Zm-7.1-14.5L503.4,206l-12.2,24.8Z"/><path class="cls-5" d="M636.7,245.47c-7.5,9.3-21.3,15.5-40,15.5-28.7,0-46.5-13.6-46.5-37.3s17.8-37.3,46.5-37.3c17.3,0,29.8,6.1,37.1,12.9l-14.9,11c-6-5.4-12.3-7.8-21.7-7.8-17,0-26.3,7.5-26.3,21.2s9.6,21.3,26.6,21.3c8.6,0,15.4-1.7,20.3-6.2v-6.3H594.6v-14.3h42.1Z"/><path class="cls-5" d="M723.2,201.46,675.1,243h49.7v15.7H645.3v-12.8l48.2-41.5H647.1v-15.7h76.1Z"/></svg>