<svg id="Layer_1" data-name="Layer 1" xmlns="http://www.w3.org/2000/svg" viewBox="0 0 51.84 48.69"><defs><style>.cls-1{fill:#fff;}</style></defs><title>thumbs-up</title><path class="cls-1" d="M51.84,24.76a4.16,4.16,0,0,0-4.16-4.16H33.75a3.59,3.59,0,0,1-.06-1.45,23,23,0,0,1,2.51-6.41c1-1.8,1.45-10.35-.45-11.66A4.17,4.17,0,0,0,30,2.14l-2.36,8.6-4.68,6.79c-.85,1.23-5.23,6.3-5.23,6.3V46.57L25,48.69H41.11A4.14,4.14,0,0,0,45,43a4.14,4.14,0,0,0,1.83-7.09,4.15,4.15,0,0,0,2-7.16A4.15,4.15,0,0,0,51.84,24.76Z"/><rect class="cls-1" y="21.85" width="15.18" height="26.84"/></svg>