<svg id="Layer_1" data-name="Layer 1" xmlns="http://www.w3.org/2000/svg" viewBox="0 0 61.26 47.71"><defs><style>.cls-1{fill:#fff;}</style></defs><title>trolley</title><path class="cls-1" d="M15,34.37A6.67,6.67,0,1,0,21.71,41,6.67,6.67,0,0,0,15,34.37ZM15,43a2,2,0,1,1,2-2A2,2,0,0,1,15,43Z"/><path class="cls-1" d="M35.19,34.37A6.67,6.67,0,1,0,41.86,41,6.67,6.67,0,0,0,35.19,34.37Zm0,8.66a2,2,0,1,1,2-2A2,2,0,0,1,35.19,43Z"/><path class="cls-1" d="M61,.22A1.45,1.45,0,0,0,60.16,0H47.89L46.76,4.68l-.24,1H0l6.3,26H44.79L51.24,4.9h8.35c.57,0,1-.25,1.1-.59L61.26.72A.51.51,0,0,0,61,.22ZM43.27,10.29l-.69.69.46.47L42.58,11l-.65.65.65-.65-.69-.69Zm-11.4,0-.18.18,2.07,2.08L35.32,11l-.69-.69H36l-.69.69.46.47L35.32,11l-1.55,1.55,1.4,1.4-1.41-1.4-2.07,2.07.86.87-.86-.86-1.56,1.55.93.93-.94-.93-2.07,2.07,1,1-1-1h0L26,16.18l-1.55,1.55L26.5,19.8h0l.84.84-.84-.83-2.07,2.07,1.21,1.21-1.21-1.21h0L22.36,19.8l-.71.7.71-.71h0l2.08-2.08h0L26,16.17h0l2.08-2.08h0l1.55-1.55h0l2.08-2.08h0l.18-.17ZM20.79,25.5h0l-1.4,1.4,1.4-1.41-2.07-2.07-.78.77.78-.78h0l2.07-2.08L19.24,19.8l-2.08,2.07h0L16.08,23l1.09-1.09L15.1,19.8,14,20.93l1.13-1.13h0l2.07-2.08-.77-.78.78.78h0l2.08,2.08h0l1.55,1.55h0l2.08,2.08h0l.71.71-.71-.7Zm-9.33-9.34h0L10.33,15l1.13,1.13,2.07-2.07-.93-.94.93.93h0l2.08,2.07,1.55-1.55L15.1,12.54h0l-.93-.93.94.93,2.08-2.07h0l.14-.14-.13.14,2.07,2.07.94-.93-.93.93h0l-2.08,2.08h0l-1.55,1.55h0l-2.08,2.08h0l-.62.62.62-.62Zm11.4,0h0L24,17.26l-1.09-1.09-2.08,2.07h0l-1.09,1.09,1.09-1.09-2.07-2.08h0l-1.09-1.09,1.09,1.09L20.8,14.1h0l.85-.85-.85.85Zm5.88-5.88-.69.69.7.71L28.06,11h0l-.69-.69Zm-7.26,0L20.8,11l1.55,1.55,2.08-2.07h0l.09-.09-.08.09,2.07,2.07,1.41-1.4-1.4,1.4h0l-2.07,2.08.78.78-.78-.78h0l-2.08-2.08h0L20.8,11h0l-.69-.69Zm-15.24,0H7l-.59.59Zm1,4.73,1.14,1.14,1.55-1.55L7.84,12.54l-.95.95-.47-2.35h0l.47,2.34.94-.94L7,11.69l.85.84,2.07-2.07-.12-.13.12.12h0L12,12.54,13.54,11l-.69-.69h1.39l-.69.69h0L12,12.54h0L9.91,14.61h0L8.36,16.17h0l-.76.77Zm5,12.32L12,27.06l-.28.27h-2l-.36-1.78L9.91,25l-.17-.17.17.17h0L12,27.06h0l.28.28Zm7.26,0-.27-.27-.28.27H15.37l-.28-.27L15,27.2l.14-.14L13.54,25.5l-1,1,1-1-2.07-2.07-1.25,1.24,1.24-1.24h0l2.07-2.08L12,19.8,9.91,21.87h0L8.82,23h0l1.09-1.09L8.26,20.22l-.14-.7,1.79-1.79-.77-.78.78.78h0L12,19.8h0l1.55,1.55h0l2.08,2.08h0L17.17,25h0l2.08,2.08h0l.28.28Zm7.26,0-.27-.27-.27.27h-3.6l-.27-.27-.28.27h0l.28-.28h0L24.43,25h0L26,23.43h0l2.08-2.08h0l1.55-1.55h0l2.08-2.08h0l1.55-1.55h0l2.08-2.08h0l1.55-1.55h0l2.08-2.08.17-.18h0l-.18.18L41,12.54h0l-2.08,2.07.62.62-.62-.62-.62.62.62-.62-2.08-2.07L35.32,14.1l2.07,2.08h0l-2.08,2.07.86.87-.86-.86L33.76,19.8l.85.85-.85-.85-2.07,2.07,1.21,1.21-1.21-1.21-1.55,1.55.78.78-.78-.77L28.06,25.5l1.39,1.41-1.4-1.4L26.5,27.06l.28.28ZM41,19.81,39,21.88h0L36.87,19.8h0l2.07-2.08h0L41,19.8h0Zm-7,7.53-.27-.27-.28.27h-3.6l-.27-.27-.27.27.27-.27h0L31.69,25h0l1.55-1.55h0l2.07-2.07h0l2.07,2.08.62-.62-.62.62.93.93-.94-.93-2.07,2.08h0l-2.07-2.07L31.69,25l2.07,2.08.52-.52-.52.52.28.27Zm7.18,0H37.14l-.27-.27h0L38.95,25h0l2.29,2.29Zm.62-2.57L40.5,23.43h0l2.07-2.07h0l.05.05Zm1-4.35.36-1.51-.36-.36.36.35Zm.77-3.23-1.06,1.08h0L40.5,16.18h0l2.07-2.07h0L44,15.56Zm1-4.13-.5-.49h0l.82-.82Z"/><polygon class="cls-1" points="15.62 23.43 13.54 25.5 15.1 27.06 17.16 24.98 15.62 23.43"/><polygon class="cls-1" points="28.06 14.1 30.13 16.18 30.13 16.17 31.69 14.61 29.61 12.55 28.06 14.1"/><polygon class="cls-1" points="35.32 18.24 33.24 16.18 31.69 17.73 33.76 19.8 35.32 18.24"/><polygon class="cls-1" points="31.69 21.87 29.61 19.8 28.06 21.35 30.13 23.43 31.69 21.87"/><polygon class="cls-1" points="25.98 23.43 24.43 24.98 26.5 27.06 28.06 25.5 25.98 23.43"/></svg>