<?xml version="1.0" encoding="utf-8"?>
<!-- Generator: Adobe Illustrator 21.1.0, SVG Export Plug-In . SVG Version: 6.00 Build 0)  -->
<svg version="1.1" id="Layer_1" xmlns="http://www.w3.org/2000/svg" xmlns:xlink="http://www.w3.org/1999/xlink" x="0px" y="0px"
	 viewBox="0 0 200 67" style="enable-background:new 0 0 200 67;" xml:space="preserve">
<style type="text/css">
	.st0{fill:#73BA37;}
</style>
<g id="eXgYje.tif">
	<g>
		<path class="st0" d="M0.6,15.6h4.9v7c1.9-2.7,4.2-4.7,6.7-6s5.4-2,8.5-2c5.4,0,10.1,2,13.9,5.9c3.9,3.9,5.8,8.6,5.8,14.1
			c0,5.6-1.9,10.4-5.7,14.3c-3.8,3.9-8.4,5.9-13.9,5.9c-3,0-5.8-0.6-8.4-1.9s-4.9-3.2-6.9-5.7v20.6H0.6V15.6z M20.3,19.4
			c-4.3,0-7.8,1.5-10.8,4.5c-2.9,3-4.4,6.7-4.4,11.1c0,2.9,0.6,5.5,1.9,7.8c1.3,2.3,3.2,4.2,5.6,5.5s5,2,7.7,2
			c2.6,0,5.1-0.7,7.5-2.1c2.3-1.4,4.2-3.3,5.6-5.7c1.4-2.5,2.1-5,2.1-7.7c0-2.7-0.7-5.3-2.1-7.7c-1.4-2.4-3.2-4.3-5.5-5.7
			S23,19.4,20.3,19.4z"/>
		<path class="st0" d="M46,15.6h5v5.6c1.5-2.2,3.1-3.9,4.7-4.9c1.7-1.1,3.4-1.6,5.2-1.6c1.4,0,2.8,0.4,4.4,1.3l-2.6,4.1
			c-1-0.4-1.9-0.7-2.6-0.7c-1.6,0-3.2,0.7-4.7,2c-1.5,1.3-2.7,3.4-3.5,6.3c-0.6,2.2-0.9,6.6-0.9,13.2v12.9h-5V15.6z"/>
		<path class="st0" d="M99.6,41.2l4.2,2.2c-1.4,2.7-2.9,4.8-4.7,6.5c-1.8,1.6-3.8,2.9-6,3.7c-2.2,0.9-4.8,1.3-7.6,1.3
			c-6.2,0-11.1-2-14.6-6.1c-3.5-4.1-5.3-8.7-5.3-13.9c0-4.9,1.5-9.2,4.5-13c3.8-4.8,8.8-7.2,15.2-7.2c6.5,0,11.7,2.5,15.6,7.4
			c2.8,3.5,4.2,7.9,4.2,13.1H70.6c0.1,4.4,1.5,8.1,4.3,10.9S81,50.3,85,50.3c1.9,0,3.8-0.3,5.7-1c1.8-0.7,3.4-1.6,4.7-2.7
			S98.1,43.7,99.6,41.2z M99.6,30.9c-0.7-2.6-1.6-4.7-2.9-6.3c-1.3-1.6-2.9-2.8-5-3.8c-2.1-1-4.2-1.4-6.5-1.4c-3.8,0-7,1.2-9.7,3.6
			c-2,1.8-3.5,4.4-4.5,7.9H99.6z"/>
		<path class="st0" d="M131.7,19.8l-3.2,3.3c-2.6-2.6-5.2-3.8-7.7-3.8c-1.6,0-3,0.5-4.1,1.6c-1.1,1.1-1.7,2.3-1.7,3.7
			c0,1.2,0.5,2.4,1.4,3.6c0.9,1.1,2.9,2.5,5.9,4c3.7,1.9,6.2,3.7,7.5,5.5c1.3,1.8,1.9,3.8,1.9,6c0,3.1-1.1,5.8-3.3,8
			c-2.2,2.2-5,3.3-8.3,3.3c-2.2,0-4.3-0.5-6.3-1.4c-2-1-3.7-2.3-5-4l3.1-3.5c2.5,2.8,5.2,4.3,8,4.3c2,0,3.7-0.6,5-1.9
			c1.4-1.3,2.1-2.8,2.1-4.5c0-1.4-0.5-2.7-1.4-3.8c-0.9-1.1-3-2.4-6.2-4.1c-3.5-1.8-5.8-3.5-7-5.3c-1.2-1.7-1.9-3.7-1.9-5.9
			c0-2.9,1-5.3,3-7.2c2-1.9,4.5-2.9,7.5-2.9C124.5,14.6,128.1,16.4,131.7,19.8z"/>
		<path class="st0" d="M142.9,1.4h4.9v14.2h7.8v4.3h-7.8v34h-4.9v-34h-6.7v-4.3h6.7V1.4z"/>
		<path class="st0" d="M179.3,14.6c5.9,0,10.8,2.1,14.7,6.4c3.5,3.9,5.3,8.5,5.3,13.8c0,5.3-1.9,10-5.6,14c-3.7,4-8.5,6-14.4,6
			c-5.9,0-10.7-2-14.4-6c-3.7-4-5.6-8.7-5.6-14c0-5.3,1.8-9.9,5.3-13.8C168.5,16.8,173.4,14.6,179.3,14.6z M179.3,19.5
			c-4.1,0-7.6,1.5-10.6,4.5c-2.9,3-4.4,6.7-4.4,11c0,2.8,0.7,5.3,2,7.7c1.3,2.4,3.2,4.2,5.4,5.5c2.3,1.3,4.8,2,7.5,2s5.2-0.7,7.5-2
			s4.1-3.1,5.4-5.5s2-5,2-7.7c0-4.3-1.5-7.9-4.4-11C186.9,21,183.3,19.5,179.3,19.5z"/>
	</g>
</g>
</svg>
