<?xml version="1.0" encoding="utf-8"?>
<!-- Generator: Adobe Illustrator 17.1.0, SVG Export Plug-In . SVG Version: 6.00 Build 0)  -->
<!DOCTYPE svg PUBLIC "-//W3C//DTD SVG 1.1//EN" "http://www.w3.org/Graphics/SVG/1.1/DTD/svg11.dtd">
<svg version="1.1" id="Layer_1" xmlns="http://www.w3.org/2000/svg" xmlns:xlink="http://www.w3.org/1999/xlink" x="0px" y="0px"
	 viewBox="0 0 695.053 134.748" enable-background="new 0 0 695.053 134.748" xml:space="preserve">
<g>
	<g>
		<polygon fill="#9A1E28" points="52.681,42.093 40.53,21.047 52.681,0 76.984,0 89.136,21.047 76.984,42.093 		"/>
		<polygon fill="#9A1E28" points="52.681,134.748 40.53,113.702 52.681,92.655 76.984,92.655 89.136,113.702 76.984,134.748 		"/>
		<polygon fill="#9A1E28" points="92.735,111.571 80.584,90.524 92.735,69.477 117.038,69.477 129.189,90.524 117.038,111.571 		"/>
		<polygon fill="#9A1E28" points="12.151,111.571 0,90.524 12.151,69.477 36.455,69.477 48.606,90.524 36.455,111.571 		"/>
		<polygon fill="#9A1E28" points="92.735,64.729 80.584,43.682 92.735,22.635 117.038,22.635 129.189,43.682 117.038,64.729 		"/>
		<polygon fill="#9A1E28" points="12.151,64.729 0,43.682 12.151,22.635 36.455,22.635 48.606,43.682 36.455,64.729 		"/>
	</g>
	<text transform="matrix(1 0 0 1 140.188 91.1504)"><tspan x="0" y="0" fill="#9A1E28" font-family="'NexaBold'" font-size="100">sticky</tspan><tspan x="267.496" y="0" fill="#333333" font-family="'NexaLight'" font-size="100">media</tspan></text>
</g>
</svg>
