<svg id="Layer_1" data-name="Layer 1" xmlns="http://www.w3.org/2000/svg" xmlns:xlink="http://www.w3.org/1999/xlink" viewBox="0 0 359.21 62.44"><defs><style>.cls-1,.cls-10{fill:#f18a00;}.cls-2{fill:#1d1d1b;}.cls-10,.cls-11,.cls-12,.cls-13,.cls-14,.cls-15,.cls-16,.cls-17,.cls-18,.cls-19,.cls-20,.cls-22,.cls-23,.cls-24,.cls-25,.cls-26,.cls-27,.cls-28,.cls-3,.cls-4,.cls-5,.cls-6,.cls-7,.cls-8,.cls-9{fill-rule:evenodd;}.cls-3{fill:url(#GradientFill_1);}.cls-4{fill:url(#GradientFill_2);}.cls-5{fill:#fff;}.cls-21,.cls-6{fill:#878787;}.cls-7{fill:#ededed;}.cls-8{fill:url(#GradientFill_1-2);}.cls-9{fill:url(#GradientFill_2-2);}.cls-11{fill:url(#linear-gradient);}.cls-12{fill:url(#linear-gradient-2);}.cls-13{fill:url(#linear-gradient-3);}.cls-14{fill:url(#linear-gradient-4);}.cls-15{fill:url(#linear-gradient-5);}.cls-16{fill:url(#linear-gradient-6);}.cls-17{fill:#f6a340;}.cls-18{fill:url(#linear-gradient-7);}.cls-19{fill:url(#linear-gradient-8);}.cls-20{fill:url(#GradientFill_5);}.cls-22{fill:url(#GradientFill_5-2);}.cls-23{fill:url(#GradientFill_6);}.cls-24{fill:url(#GradientFill_6-2);}.cls-25{fill:url(#GradientFill_6-3);}.cls-26{fill:url(#GradientFill_7);}.cls-27{fill:url(#GradientFill_8);}.cls-28{fill:url(#GradientFill_9);}</style><linearGradient id="GradientFill_1" x1="351.55" y1="27.9" x2="352.17" y2="35.01" gradientUnits="userSpaceOnUse"><stop offset="0" stop-color="#dadada"/><stop offset="1" stop-color="#fff"/></linearGradient><linearGradient id="GradientFill_2" x1="351.85" y1="26.28" x2="351.85" y2="31.77" gradientUnits="userSpaceOnUse"><stop offset="0" stop-color="#ededed"/><stop offset="1" stop-color="#dadada"/></linearGradient><linearGradient id="GradientFill_1-2" x1="315.25" y1="37.3" x2="315.25" y2="45.44" xlink:href="#GradientFill_1"/><linearGradient id="GradientFill_2-2" x1="315.25" y1="34.29" x2="315.25" y2="41.78" xlink:href="#GradientFill_2"/><linearGradient id="linear-gradient" x1="330.75" y1="24.86" x2="328.42" y2="16.13" gradientUnits="userSpaceOnUse"><stop offset="0" stop-color="#fff"/><stop offset="1" stop-color="#f18a00"/></linearGradient><linearGradient id="linear-gradient-2" x1="316.3" y1="11.05" x2="319.2" y2="23.6" gradientUnits="userSpaceOnUse"><stop offset="0" stop-color="#f18a00"/><stop offset="1" stop-color="#fff"/></linearGradient><linearGradient id="linear-gradient-3" x1="294.06" y1="25.4" x2="319.8" y2="16.03" xlink:href="#linear-gradient-2"/><linearGradient id="linear-gradient-4" x1="273.81" y1="13.02" x2="282.21" y2="26.45" gradientUnits="userSpaceOnUse"><stop offset="0" stop-color="#fff"/><stop offset="1" stop-color="#ca9e67"/></linearGradient><linearGradient id="linear-gradient-5" x1="340.9" y1="42.28" x2="338.24" y2="25.47" xlink:href="#linear-gradient"/><linearGradient id="linear-gradient-6" x1="260.89" y1="28.45" x2="276.14" y2="36.9" xlink:href="#linear-gradient"/><linearGradient id="linear-gradient-7" x1="275.05" y1="34.87" x2="275.29" y2="48.83" xlink:href="#linear-gradient-2"/><linearGradient id="linear-gradient-8" x1="345.99" y1="10.69" x2="343.71" y2="3.69" xlink:href="#linear-gradient"/><linearGradient id="GradientFill_5" x1="332.21" y1="3" x2="335.08" y2="11.84" gradientUnits="userSpaceOnUse"><stop offset="0" stop-color="#878787"/><stop offset="1" stop-color="#ededed"/></linearGradient><linearGradient id="GradientFill_5-2" x1="302.92" y1="10.18" x2="301.21" y2="3.78" xlink:href="#GradientFill_5"/><linearGradient id="GradientFill_6" x1="315.66" y1="7.25" x2="316.82" y2="15.52" gradientUnits="userSpaceOnUse"><stop offset="0" stop-color="#3c3c3b"/><stop offset="1" stop-color="#dadada"/></linearGradient><linearGradient id="GradientFill_6-2" x1="297.98" y1="32.75" x2="293.74" y2="27.31" xlink:href="#GradientFill_6"/><linearGradient id="GradientFill_6-3" x1="270.7" y1="32.24" x2="267.81" y2="25.41" xlink:href="#GradientFill_6"/><linearGradient id="GradientFill_7" x1="320.99" y1="13.29" x2="321.17" y2="18.38" gradientUnits="userSpaceOnUse"><stop offset="0" stop-color="#3c3c3b"/><stop offset="1" stop-color="#706f6f"/></linearGradient><linearGradient id="GradientFill_8" x1="296.25" y1="44.45" x2="296.25" y2="48.05" gradientUnits="userSpaceOnUse"><stop offset="0" stop-color="#3c3c3b"/><stop offset="1" stop-color="#878787"/></linearGradient><linearGradient id="GradientFill_9" x1="322.93" y1="15.47" x2="323.64" y2="19.54" gradientUnits="userSpaceOnUse"><stop offset="0" stop-color="#3c3c3b"/><stop offset="1" stop-color="#b2b2b2"/></linearGradient></defs><title>car-leasing-logo</title><path class="cls-1" d="M9.11,16.94A3.54,3.54,0,0,0,7,16.11,2.79,2.79,0,0,0,4.21,19a2.76,2.76,0,0,0,2.86,2.89,3.07,3.07,0,0,0,2-.8V24.6a6.25,6.25,0,0,1-2.86.67A6.12,6.12,0,0,1,0,19.12a6.22,6.22,0,0,1,6.42-6.4,5.44,5.44,0,0,1,2.68.69Z"/><path class="cls-1" d="M23.74,24.87H19.67V23.57h0a4,4,0,0,1-3.47,1.7c-3.4,0-5.79-2.91-5.79-6.28s2.35-6.26,5.75-6.26a4.63,4.63,0,0,1,3.56,1.54V13.11h4.07ZM14.57,19a2.48,2.48,0,0,0,2.62,2.64A2.49,2.49,0,0,0,19.8,19a2.53,2.53,0,0,0-2.62-2.66A2.53,2.53,0,0,0,14.57,19Z"/><path class="cls-1" d="M30.07,15h0a4,4,0,0,1,3.71-2.09h.78v4a3.22,3.22,0,0,0-1.72-.39c-2.26,0-2.82,1.54-2.82,3.55v4.75H26V13.11h4.07Z"/><path class="cls-2" d="M39.76,24.87H35.69v-19h4.07Z"/><path class="cls-2" d="M53.79,19.69H45.22a2.31,2.31,0,0,0,2.55,2.61,2,2,0,0,0,1.95-1.08h3.91c-.65,2.77-3.22,4-5.84,4-3.8,0-6.64-2.2-6.64-6.26s2.62-6.28,6.35-6.28c4,0,6.29,2.52,6.29,6.54ZM50,17.28a2.43,2.43,0,0,0-4.72,0Z"/><path class="cls-2" d="M67.75,24.87H63.68V23.57h0a4,4,0,0,1-3.47,1.7c-3.4,0-5.8-2.91-5.8-6.28s2.35-6.26,5.75-6.26a4.63,4.63,0,0,1,3.56,1.54V13.11h4.07ZM58.58,19a2.62,2.62,0,1,0,5.24,0,2.62,2.62,0,1,0-5.24,0Z"/><path class="cls-2" d="M77.6,16.14a5,5,0,0,0-2.19-.57c-.47,0-1.28.21-1.28.8,0,.8,1.28.92,1.83,1,1.9.39,3.33,1.31,3.33,3.48,0,3.09-2.75,4.38-5.41,4.38a8.75,8.75,0,0,1-4.63-1.35L70.73,21A6.47,6.47,0,0,0,74,22.19c.52,0,1.28-.25,1.28-.9,0-.92-1.28-1-2.55-1.31a2.92,2.92,0,0,1-2.55-3.1c0-2.89,2.55-4.17,5.06-4.17a8.92,8.92,0,0,1,3.78.76Z"/><path class="cls-2" d="M85.37,8.59a2.28,2.28,0,1,1-2.28-2.34A2.32,2.32,0,0,1,85.37,8.59Zm-.25,16.28H81V13.11h4.07Z"/><path class="cls-2" d="M91.43,14.62h0a3.94,3.94,0,0,1,3.67-1.9c3.09,0,4.32,2,4.32,4.88v7.27H95.39V19.14c0-1.12.18-3.1-1.83-3.1-1.66,0-2.12,1.26-2.12,2.73v6.1H87.36V13.11h4.07Z"/><path class="cls-2" d="M114.3,23.73c0,5-2.42,7-6.65,7-2.64,0-6.18-1.4-6.53-4.5h4.56a1.43,1.43,0,0,0,.76.9,2.61,2.61,0,0,0,1.16.28c2.19,0,2.62-1.47,2.62-3.37V23.5a4.73,4.73,0,0,1-3.65,1.61c-3.36,0-5.66-2.62-5.66-6s2.37-6.37,5.89-6.37a3.89,3.89,0,0,1,3.38,1.63h0V13.11h4.07Zm-9.18-4.82a2.62,2.62,0,1,0,5.24,0,2.62,2.62,0,1,0-5.24,0Z"/><path class="cls-2" d="M122.64,15.79v3.44h-6.4V15.79Z"/><path class="cls-2" d="M137.7,19c0,4-3.22,6.26-6.91,6.26S123.88,23,123.88,19s3.22-6.28,6.91-6.28S137.7,15,137.7,19Zm-9.53,0a2.62,2.62,0,1,0,5.24,0,2.62,2.62,0,1,0-5.24,0Z"/><path class="cls-2" d="M143.16,14.62h0a3.94,3.94,0,0,1,3.67-1.9c3.09,0,4.32,2,4.32,4.88v7.27h-4.07V19.14c0-1.12.18-3.1-1.84-3.1-1.65,0-2.12,1.26-2.12,2.73v6.1h-4.07V13.11h4.07Z"/><path class="cls-2" d="M164.06,8.59a2.28,2.28,0,1,1-2.28-2.34A2.32,2.32,0,0,1,164.06,8.59Zm-.25,16.28h-4.07V13.11h4.07Z"/><path class="cls-2" d="M170.13,14.62h0a4,4,0,0,1,3.67-1.9c3.09,0,4.32,2,4.32,4.88v7.27h-4.07V19.14c0-1.12.18-3.1-1.83-3.1-1.66,0-2.13,1.26-2.13,2.73v6.1h-4.07V13.11h4.07Z"/><path class="cls-2" d="M192.19,19.69h-8.57a2.31,2.31,0,0,0,2.55,2.61,2,2,0,0,0,1.95-1.08H192c-.65,2.77-3.22,4-5.84,4-3.81,0-6.65-2.2-6.65-6.26s2.62-6.28,6.35-6.28c4,0,6.29,2.52,6.29,6.54Zm-3.78-2.41a2.43,2.43,0,0,0-4.72,0Z"/><path class="cls-2" d="M198.72,22.65A2.62,2.62,0,1,1,196.11,20,2.65,2.65,0,0,1,198.72,22.65Z"/><path class="cls-2" d="M209.11,16.94a3.56,3.56,0,0,0-2.1-.83,2.79,2.79,0,0,0-2.8,2.87,2.76,2.76,0,0,0,2.86,2.89,3.09,3.09,0,0,0,2-.8V24.6a6.26,6.26,0,0,1-2.87.67A6.12,6.12,0,0,1,200,19.12a6.22,6.22,0,0,1,6.42-6.4,5.45,5.45,0,0,1,2.69.69Z"/><path class="cls-2" d="M224.17,19c0,4-3.22,6.26-6.91,6.26S210.34,23,210.34,19s3.22-6.28,6.92-6.28S224.17,15,224.17,19Zm-9.53,0a2.62,2.62,0,1,0,5.24,0,2.62,2.62,0,1,0-5.24,0Z"/><path class="cls-2" d="M230.68,22.65A2.62,2.62,0,1,1,228.06,20,2.66,2.66,0,0,1,230.68,22.65Z"/><path class="cls-2" d="M236.79,13.11v6.28c0,1.49.36,2.55,2,2.55s2-1.05,2-2.55V13.11h4.07V20.2c0,3.88-2.66,5.07-6.11,5.07s-6.11-1.19-6.11-5.07V13.11Z"/><path class="cls-2" d="M251.15,17.35l4.23-4.24H261l-5.75,5.43,6.11,6.33H255.6l-4.45-4.79v4.79h-4.07v-19h4.07Z"/><path class="cls-2" d="M279.87,14.1A59.75,59.75,0,0,1,306.52,1.49c9.61-2,19.84-1.88,30.42-.41a30.86,30.86,0,0,1,4.26,1c1,.29,2,.57,2.95.77.44.09.81.19,1.19.29a11.85,11.85,0,0,0,2.46.45h0a1.46,1.46,0,0,1,.84.31,1.57,1.57,0,0,1,.52.75L351.57,12a10.39,10.39,0,0,0,1.59,2.31c.62.78,1.34,1.67,2,2.72a7.35,7.35,0,0,1,.8,3.06,26.52,26.52,0,0,1,0,4.59h0l-.14,2.07a15.14,15.14,0,0,1,.38,2.14,17.32,17.32,0,0,1,.09,2.45,17.09,17.09,0,0,1-.34,2.9,14.35,14.35,0,0,1-.55,2c1.4.3,2.43.54,3,.71a2.75,2.75,0,0,1,.38.14c.42.21.53.5.29.87h0a.56.56,0,0,1-.24.21l-.08,0-53.59,15.7c-15.27,4.47-30.24-2-36.09-4.48-.79-.34-1.42-.61-1.8-.75h0a4.57,4.57,0,0,1-1.67-1.18,2,2,0,0,1-.49-1.63,2.91,2.91,0,0,1,.79-1.5,7.71,7.71,0,0,1,2.06-1.52A7.42,7.42,0,0,1,266.25,40a25.56,25.56,0,0,1-1.06-4.94,11.14,11.14,0,0,1,.21-3.22,14.58,14.58,0,0,1,1-3.34h0A26.9,26.9,0,0,1,272,20.31,43.33,43.33,0,0,1,279.87,14.1Z"/><path class="cls-3" d="M352.06,25.32c1.75.06,3.08,2.86,3,6.25s-1.63,6.09-3.38,6-3.08-2.86-3-6.25,1.63-6.09,3.38-6Zm-1.27,3.35.76-2.19a.71.71,0,0,0,0-.48c-.06-.13-.15-.19-.24-.14a4.13,4.13,0,0,0-1.82,2.38.87.87,0,0,0,0,.49c0,.16.12.25.21.25h.91c.11,0,.19-.13.24-.31Zm-.95,6.2.14-2.2a1,1,0,0,0-.07-.52l-.62-1.44a.15.15,0,0,0-.25-.06.57.57,0,0,0-.15.4,9.75,9.75,0,0,0,.53,4c.05.14.14.2.23.17a.37.37,0,0,0,.2-.32Zm3,1.18-1.23-1.36c-.09-.1-.2-.15-.28,0L350.58,36a.8.8,0,0,0-.12.44.52.52,0,0,0,.14.39,1.69,1.69,0,0,0,2.15.08.52.52,0,0,0,.17-.38.66.66,0,0,0-.09-.45Zm1.64-5.16-1.3,1.37a.63.63,0,0,0-.1.51l.56,2.23c0,.16.08.29.17.33s.18,0,.24-.16a9.76,9.76,0,0,0,.8-3.92.57.57,0,0,0-.13-.41c-.08-.08-.17-.06-.25,0Zm-2-4.37,0,2.22c0,.2.11.32.21.33l1.49.08c.09,0,.17-.08.22-.23a.84.84,0,0,0,0-.49,4.15,4.15,0,0,0-1.65-2.5c-.09,0-.18,0-.25.13A.87.87,0,0,0,352.5,26.51Z"/><path class="cls-4" d="M349.87,32A15.24,15.24,0,0,1,355,30.51c-.16-2.89-1.39-5.13-3-5.19-1.75-.06-3.27,2.64-3.38,6a11.71,11.71,0,0,0,0,1.39l.19-.13a10.53,10.53,0,0,1,0-1.57.57.57,0,0,1,.15-.4.15.15,0,0,1,.25.06l.58,1.34Zm1.68-5.56-.76,2.19c0,.18-.13.31-.24.31h-.91c-.09,0-.17-.09-.21-.25a.87.87,0,0,1,0-.49,4.14,4.14,0,0,1,1.82-2.38c.09,0,.18,0,.24.14a.71.71,0,0,1,0,.48Zm1,2.25,0-2.22a.87.87,0,0,1,.07-.47c.07-.13.16-.17.25-.12a4.15,4.15,0,0,1,1.65,2.5.84.84,0,0,1,0,.49c-.05.16-.13.24-.22.23l-1.49-.08C352.64,29.05,352.53,28.93,352.53,28.73Z"/><path class="cls-5" d="M351.36,26.48l-.75,2.19c0,.17-.12.3-.22.31h.18c.11,0,.19-.13.24-.31l.76-2.19a.71.71,0,0,0,0-.48c-.06-.13-.15-.19-.24-.14l0,0a.32.32,0,0,1,.08.12A.69.69,0,0,1,351.36,26.48Z"/><path class="cls-6" d="M352.65,25.93a4.21,4.21,0,0,1,1.62,2.48.86.86,0,0,1,0,.49.33.33,0,0,1-.17.23h.14c.09,0,.17-.08.22-.23a.84.84,0,0,0,0-.49,4.15,4.15,0,0,0-1.65-2.5A.14.14,0,0,0,352.65,25.93Z"/><path class="cls-5" d="M354.65,31.25a9.73,9.73,0,0,1-.79,3.92.38.38,0,0,1-.09.13l0,0c.09,0,.18,0,.24-.16a9.76,9.76,0,0,0,.8-3.92.57.57,0,0,0-.13-.41.14.14,0,0,0-.2,0h0A.57.57,0,0,1,354.65,31.25Z"/><path class="cls-6" d="M352.92,36.5a.8.8,0,0,0,0-.36h0a.29.29,0,0,0,0-.09l-1.23-1.36c-.08-.09-.17-.14-.25-.05l.06.05,1.23,1.36,0,0a.75.75,0,0,1,.06.4.53.53,0,0,1-.17.38,1.85,1.85,0,0,1-.93.35,1.77,1.77,0,0,0,1.13-.35A.52.52,0,0,0,352.92,36.5Z"/><path class="cls-5" d="M349.85,34.87l.14-2.2a1,1,0,0,0-.07-.52l0-.1-.58-1.34a.14.14,0,0,0-.24-.07.21.21,0,0,1,0,.07l.63,1.44a1,1,0,0,1,.07.52l-.14,2.2a.42.42,0,0,1-.14.29.14.14,0,0,0,.14,0A.37.37,0,0,0,349.85,34.87Z"/><path class="cls-2" d="M351.49,29.28h0a1,1,0,0,1,.76.66,3.25,3.25,0,0,1,.29,1.46s0,.06,0,.09a3.3,3.3,0,0,1-.39,1.52,1,1,0,0,1-.85.61h0a1,1,0,0,1-.77-.66,3.29,3.29,0,0,1-.29-1.46s0-.06,0-.09a3.31,3.31,0,0,1,.39-1.52,1,1,0,0,1,.85-.61Zm0,.14h0a.94.94,0,0,0-.79.57,3.09,3.09,0,0,0-.37,1.43s0,.06,0,.09a3.08,3.08,0,0,0,.27,1.37,1,1,0,0,0,.71.61h0a1,1,0,0,0,.79-.57,3.12,3.12,0,0,0,.37-1.43s0-.06,0-.09a3.06,3.06,0,0,0-.28-1.37A1,1,0,0,0,351.52,29.41Z"/><path class="cls-6" d="M316.89,34.87a5.72,5.72,0,0,1,3,3,.6.6,0,0,1,0,.55.47.47,0,0,1-.29.23h.12a.44.44,0,0,0,.42-.24.6.6,0,0,0,0-.55,5.92,5.92,0,0,0-2.34-2.68,4.7,4.7,0,0,0-.66-.33.38.38,0,0,0-.27,0Z"/><path class="cls-7" d="M320.54,41.12A7.3,7.3,0,0,1,319,45.48a.46.46,0,0,1-.21.15h0a.41.41,0,0,0,.45-.15,7.28,7.28,0,0,0,1.56-4.35.61.61,0,0,0,0-.24.48.48,0,0,0-.19-.23.38.38,0,0,0-.34,0l.09,0A.54.54,0,0,1,320.54,41.12Z"/><path class="cls-6" d="M317.1,46.86a.54.54,0,0,0-.15-.52L315,44.69a.41.41,0,0,0-.42-.1.52.52,0,0,1,.17.1l1.94,1.65a.54.54,0,0,1,.15.52.52.52,0,0,1-.32.41,4.86,4.86,0,0,1-1.52.29,4.81,4.81,0,0,0,1.77-.29A.51.51,0,0,0,317.1,46.86Z"/><path class="cls-5" d="M311.46,44.68l.61-2.46a.73.73,0,0,0,0-.38.62.62,0,0,0-.11-.21l-1.43-1.72a.37.37,0,0,0-.41-.11.37.37,0,0,1,.16.11l1.43,1.72a.66.66,0,0,1,.12.59l-.61,2.46a.45.45,0,0,1-.3.33.38.38,0,0,0,.18,0A.44.44,0,0,0,311.46,44.68Z"/><path class="cls-5" d="M313.66,37.8l.9-1.9.24-.52a.56.56,0,0,0-.06-.54.4.4,0,0,0-.44-.19h0a.45.45,0,0,1,.22.18.57.57,0,0,1,.06.55l-1.14,2.44a.58.58,0,0,1-.28.3h.08A.48.48,0,0,0,313.66,37.8Z"/><path class="cls-8" d="M315.77,34.12c3.25.26,5.64,3.56,5.36,7.39S318,48.22,314.73,48s-5.64-3.56-5.36-7.39,3.15-6.72,6.39-6.46Zm-2.12,3.68,1.14-2.42a.56.56,0,0,0-.06-.54.4.4,0,0,0-.44-.19,5.67,5.67,0,0,0-3.42,2.5.6.6,0,0,0-.06.55.44.44,0,0,0,.38.31l2,.13a.48.48,0,0,0,.45-.33Zm-2.2,6.89.61-2.46a.66.66,0,0,0-.12-.59l-1.43-1.72a.37.37,0,0,0-.46-.09.53.53,0,0,0-.29.43,7.32,7.32,0,0,0,.89,4.55.41.41,0,0,0,.42.22.44.44,0,0,0,.37-.34ZM317,46.34,315,44.69a.39.39,0,0,0-.52,0L312.79,46a.59.59,0,0,0-.23.49.52.52,0,0,0,.25.46,4.77,4.77,0,0,0,4,.31.51.51,0,0,0,.32-.41.54.54,0,0,0-.15-.52Zm3.15-5.67L318,42.11a.53.53,0,0,0-.21.57l.69,2.56a.52.52,0,0,0,.32.39.41.41,0,0,0,.45-.15,7.28,7.28,0,0,0,1.56-4.35.53.53,0,0,0-.23-.47.4.4,0,0,0-.47,0Zm-3.55-5.16.31,2.54a.44.44,0,0,0,.39.39l2.45.22a.44.44,0,0,0,.42-.24.61.61,0,0,0,0-.55,5.74,5.74,0,0,0-3-3,.4.4,0,0,0-.46.12A.65.65,0,0,0,316.55,35.51Z"/><path class="cls-9" d="M312.07,41.84a17.36,17.36,0,0,1,7.81-1l.22-.15a.4.4,0,0,1,.47,0,.48.48,0,0,1,.19.23l.4,0a7.11,7.11,0,0,0-2.78-5.84,5.36,5.36,0,0,0-1.1-.6,5,5,0,0,0-1.5-.35,5.12,5.12,0,0,0-2.3.35,6.2,6.2,0,0,0-2.75,2.25,7.75,7.75,0,0,0-1.34,3.86,8.05,8.05,0,0,0,.2,2.52l.33-.19a7.58,7.58,0,0,1-.14-2.65.53.53,0,0,1,.29-.43.37.37,0,0,1,.46.09L312,41.64a.62.62,0,0,1,.11.21Zm2.49-5.95-.9,1.9a.48.48,0,0,1-.45.33l-2-.13a.44.44,0,0,1-.38-.31.6.6,0,0,1,.06-.55c.13-.19.26-.37.4-.54a5.52,5.52,0,0,1,3-2,.4.4,0,0,1,.44.19.56.56,0,0,1,.06.54l-.24.52Zm2.31,2.16-.31-2.54a.44.44,0,0,1,0,0,.63.63,0,0,1,.14-.48.4.4,0,0,1,.46-.12,4.7,4.7,0,0,1,.66.33,5.92,5.92,0,0,1,2.34,2.68.6.6,0,0,1,0,.55.44.44,0,0,1-.42.24l-2.45-.22A.44.44,0,0,1,316.86,38.05Z"/><path class="cls-2" d="M315.46,38.39h.05c2,.2,2.82,3.1,1.24,4.64a2.2,2.2,0,0,1-1.76.65h0c-2-.21-2.82-3.1-1.24-4.64a2.2,2.2,0,0,1,1.71-.65Zm0,.14h0c-2-.2-3.22,2.47-1.95,4.16a2.09,2.09,0,0,0,1.46.85h0c2,.2,3.22-2.47,1.95-4.16A2.08,2.08,0,0,0,315.5,38.53Z"/><path class="cls-10" d="M280.17,14.56l.13-.11c7.33,3.35,21.54,3.32,30.72,3l.51,0a.07.07,0,0,1,.08,0,.07.07,0,0,1,0,.09,79.2,79.2,0,0,1-10,7.3l-.1,0a21.67,21.67,0,0,0-11.65,5.31,2.74,2.74,0,0,1-1.76.75c-4.06.26-8.6-.81-13.65-1.93-.86-.19-2.29-.51-3.07-.76a1,1,0,0,1-.66-.78l-.81-4a38.5,38.5,0,0,1,10.22-9Zm16.58,27.08a3.2,3.2,0,0,1,2.76.42h0a2.71,2.71,0,0,1,.38,3.2,3.18,3.18,0,0,1-2.38,1.32,8.69,8.69,0,0,1-3.54-.12c-1-.29-1.79-.82-1.9-1.54s.38-1.42,1.25-2a9.41,9.41,0,0,1,3.42-1.27ZM286,41.17a1,1,0,0,1,.58,1.66l-.53.57c-3.9,4.23-15.17,1.56-16.67-3.92l-.24-.89a.66.66,0,0,1,.43-.8A109.11,109.11,0,0,0,286,41.17Zm16.34-38.1c8.24-.55,15.92.92,23.71,3.4l-.39.36L316,16c-1.07,1-3.57,1.35-3.85,1.4l0,0c-.55.55-1.81,1.6-2.3,2-1.9,1.53-5.12,3.8-7.48,5.3a.06.06,0,0,0,.05.11,22.18,22.18,0,0,1,3.27-.16c1.06,0,1,1,.59,1.75-2.38,4.32-4.41,7.91-10.18,8.91-5.31.92-20-1.72-27.26-3.52-2.3-.57-2.07-2.56-1.33-4.31q-.31.62-.58,1.25A14.67,14.67,0,0,0,265.72,35c.55,3.88,1.16,6.36,3.13,7.91,6.46,5.07,15.88,5.78,25.46,6,4.24.08,8-.09,10.91-3.59,2.51-3,2.43-5.24,3.41-8.68,1.54-5.4,7.92-10,12.23-5.23,2.77,3.08,2.49,8,2.11,11.86l23.3-7.68c1.69-.56.4-2,.4-3.22l0-1.34c.18-5.19,2.49-9.32,5.18-9.22,1.47.05,2.74,1.36,3.56,3.38.29-2.43.19-6.55-.67-7.8-1.6-2.37-3.34-4.07-3.71-5.17l-2.42-7.34a1,1,0,0,0-.87-.69A22.18,22.18,0,0,1,344,3.41c-2.39-.5-4.75-1.44-7.17-1.78C324.74-.06,313.06.09,302.29,3.07Zm40.38,11.29a12.86,12.86,0,0,1,2.46,6.45,21.29,21.29,0,0,1-.25,3.7c-.19,1.53-.47,3.29-.82,4.88a11.49,11.49,0,0,1-1.14,3.5,4.77,4.77,0,0,1-2.71,2C340,35,327.49,39.14,326,39.69h0c-1.12.4-1.34.13-1.27-1h0c.28-4.73,1.07-13.52-.34-17.83-2,.38-4.47.31-5.19-.06l0-.26c-.46-2.8,1.65-5.4,3.35-7.49l.55-.68c3.5-4.4,7-6.87,10.92-7.68S342.08,4.74,347,7l.1,0c.86,2.35.6,3.95-.45,5.14a8.24,8.24,0,0,1-4,2.14ZM324.55,20.8c1.8-.37,3.41-1.12,3.57-2.41,5.42-1.51,11.8-3.3,14.28-4l.05,0a12.58,12.58,0,0,1,2.48,6.41,21.18,21.18,0,0,1-.25,3.65c-.19,1.52-.47,3.28-.82,4.86-.62,2.84-1,4.36-3.71,5.33h0L326,39.45c-.92.31-1.21.45-1.14-.69l.11-1.7C325.31,32.57,325.84,24.82,324.55,20.8Z"/><path class="cls-11" d="M351.91,14.07l1.51,1.83c-3.48.66-6,1.3-8.88,2.11a12.59,12.59,0,0,0-.67-1.73c2.74-.72,5.43-1.44,8-2.22Zm-7.56,4a12.38,12.38,0,0,0-.67-1.73c-6.21,1.62-12.66,3.18-19,5a17.54,17.54,0,0,1,.35,1.8l1.33-.44c4.65-1.48,11.72-2.9,18-4.66Zm-19.63,4.2.12,1c-6,2-12,3.54-18.09,5.22-.27.07-.14-.39,2-1.38a119.1,119.1,0,0,1,15.76-5.68C324.6,21.69,324.66,22,324.72,22.27Z"/><path class="cls-12" d="M304.5,24.65c3.58-2.26,9.46-4.9,15.17-7.51a19.81,19.81,0,0,1,2.8-4.11l.55-.68c2.95-3.71,5.91-6,9.1-7.17-4.08.69-6,2-9.81,4.78L316,16c-1.14,1.08-3.84,1.38-3.87,1.4-.44.47-1.71,1.52-2.27,2-2.24,1.81-5.11,3.77-7.53,5.33a.06.06,0,0,0,.05.11C303.07,24.73,303.78,24.67,304.5,24.65Z"/><path class="cls-13" d="M305.83,17.59c1.84,0,3.59-.06,5.2-.11l.51,0a77.23,77.23,0,0,1-9.9,7.32.73.73,0,0,0-.17.15,21.66,21.66,0,0,0-11.57,5.3,3,3,0,0,1-.55.4l-.85.06A66.85,66.85,0,0,1,305.83,17.59Z"/><path class="cls-14" d="M280.17,14.56h0l.11-.09a30.87,30.87,0,0,0,7.63,2.11c-4.55,3-8.41,8-12.21,12.36l-4.34-1a.6.6,0,0,1-.44-.49l-1-3.9a35.44,35.44,0,0,1,7.54-7.15h0l.18-.12h0l.17-.12h0L278,16h0l.17-.12h0l.17-.12h0l.18-.12h0l.18-.12h0l.18-.12h0l.18-.12h0l.18-.12h0l.18-.12h0l.18-.12h0l.18-.12h0Z"/><path class="cls-15" d="M355.58,22.65h0a23.05,23.05,0,0,1-.14,2.5A7.59,7.59,0,0,0,354.2,23l.29-.08c.15.19.29.4.42.62a3.85,3.85,0,0,0-.31-.65l1-.28Zm-7.41,2.08a12.35,12.35,0,0,0-.86,2.23h0l-.47.14a13.77,13.77,0,0,1,.79-2.21l.54-.15Zm-.9,2.38c-.11.4-.2.81-.28,1.24h0l-2.9.93c.09-.4.17-.81.25-1.23l2.94-.94Zm-.48,2.57q-.07.64-.09,1.3v.87L342.83,33l.09-.14a8.25,8.25,0,0,0,.88-2.37l3-.84Zm-23.57,9.24a18.7,18.7,0,0,0-.2-2.59l1.86-.52c-.06,1-.12,1.87-.17,2.66l-1.49.45ZM323,36l1.93-.62c0-.39,0-.78.07-1.19l-2.24.71c.1.36.18.72.24,1.09Zm-.49-1.91a8.58,8.58,0,0,0-1-1.93l3.6-1c0,.74-.06,1.48-.1,2.2l-2.54.73Zm22.24-8.44c-.1.69-.22,1.4-.34,2.11l2.32-.67a.18.18,0,0,1,0-.11c.13-.71.29-1.38.47-2l-2.41.68Zm-19.39,5.44c0,.75-.06,1.49-.09,2.2l18.93-5.47c.13-.7.25-1.42.35-2.11l-19.18,5.38Zm-.14,3q0,.61-.07,1.19l18.74-6v0c.09-.4.17-.8.25-1.21l-18.92,6Zm-.1,1.59c0,.46-.06.89-.09,1.3l-.09,1.36,17.6-5.3a6.54,6.54,0,0,0,1.07-2.54Z"/><path class="cls-16" d="M272.65,36.91a11.09,11.09,0,0,1,.8-3.79c-1.61-.35-3.66-.79-4.89-1.1-1.86-.46-2.07-1.84-1.69-3.28a22.13,22.13,0,0,0-.93,3.93C265.74,35,269.54,36.21,272.65,36.91Z"/><path class="cls-17" d="M351.78,21.33a4,4,0,0,1,3.13,2.26c-.54-1.54-2.72-3.7-4.53-3.25s-3,3-3.72,6.7c0,.15.13.19.17.1C347.75,23.64,349.66,21.25,351.78,21.33Z"/><path class="cls-17" d="M316.66,29a6.65,6.65,0,0,1,5.15,2.84,7.3,7.3,0,0,0-6-4.1c-3.16,0-6.86,3.38-8.11,8.4,0,.18.52.21.59.1C309.88,31.88,313.09,28.89,316.66,29Z"/><path class="cls-17" d="M325.26,41,347,34.23a8.25,8.25,0,0,0-.31-1.31C345,33.52,325,41,325.26,41Z"/><path class="cls-18" d="M269.34,39.47l-.24-.89a.64.64,0,0,1,.18-.65.68.68,0,0,1,.25-.15l-.75-.25a.64.64,0,0,0-.68.15.69.69,0,0,0-.19.68l.25.94c1.24,4.67,9.07,7.1,14.28,5.95a13.44,13.44,0,0,1-5.21-.07C273.58,44.44,270.15,42.38,269.34,39.47Z"/><path class="cls-19" d="M348.51,4.74a37.45,37.45,0,0,1-9-.15,28.42,28.42,0,0,1,7.59,2.47,9.07,9.07,0,0,1,.31,1l2-.4Z"/><path class="cls-10" d="M342.73,14.34a12.72,12.72,0,0,1,2.54,6.54,21.21,21.21,0,0,1-.25,3.7c-.19,1.53-.48,3.3-.82,4.88a11.45,11.45,0,0,1-1.14,3.5,4.76,4.76,0,0,1-2.71,2c-.18.09-12.72,4.28-14.25,4.83h0c-.57.2-.9.24-1.09.07a1.6,1.6,0,0,0,1-.15h0c1.53-.55,14.07-4.74,14.25-4.83a4.77,4.77,0,0,0,2.71-2,11.49,11.49,0,0,0,1.14-3.5c.35-1.58.63-3.35.82-4.88a21.29,21.29,0,0,0,.25-3.7,12.88,12.88,0,0,0-2.46-6.45l.06,0Zm-18.09,6.45-.09,0c1.29,4,.76,11.76.45,16.26l-.11,1.7c0,.29,0,.73.14.87l.09,0a1.42,1.42,0,0,1-.1-.83l.11-1.69C325.44,32.64,325.94,24.82,324.64,20.78Z"/><path class="cls-20" d="M325.05,15.06a110.68,110.68,0,0,1,10.7-3.4l-6,.71a96.92,96.92,0,0,1,10.48-3c-.73-1.56-1.63-3.11-2.47-4.67h.05q1.34,2.32,2.55,4.63c2.26-.51,4.57-1,6.82-1.31q-.1-.35-.23-.73c-9.79-4.52-16.77-3.45-23.69,5.25l-.89,1.11v0a14.57,14.57,0,0,1,.67,1.87,3.27,3.27,0,0,1,1.43-.48Z"/><path class="cls-21" d="M342.45,14a60.65,60.65,0,0,0-2.92-6.21,46.68,46.68,0,0,1,3,6.2Z"/><path class="cls-21" d="M342.53,14.12a.12.12,0,0,0-.05-.06,6.6,6.6,0,0,0,4.36-2.63c.85-1.51.55-2.6.08-4.16a4.38,4.38,0,0,1,0,4.2,6.7,6.7,0,0,1-4.36,2.65ZM328.12,18l14.19-3.91s.05,0,.08,0l-14.25,3.93Z"/><path class="cls-22" d="M288.46,16.18c6.61-5.31,13-9.42,19.56-12q.94-.37,1.88-.69c1.1.11,2.22.25,3.33.42A103.78,103.78,0,0,1,325,6.57l0-.06a103.27,103.27,0,0,0-11.78-2.69c-1.09-.17-2.09-.3-3.18-.41a52.41,52.41,0,0,0-8.41,0,59.36,59.36,0,0,0-11,4.35,55.82,55.82,0,0,0-9.77,6.43A31,31,0,0,0,288.46,16.18Z"/><path class="cls-23" d="M325.35,6.67l-1.68-.46c-5,2.17-11.67,8-16.4,10.95l5.24-.21a5.56,5.56,0,0,0,3.25-1.17Z"/><path class="cls-24" d="M290.72,29.77a19.58,19.58,0,0,0-3.13,5.14c.79,0,1.57,0,2.35-.05a19.59,19.59,0,0,0,3.19-.42,9.53,9.53,0,0,0,5.89-3.6c.39-.54.76-1.11,1.13-1.66a22.29,22.29,0,0,1,1.63-2.2,18.65,18.65,0,0,1,2.15-2.1A25.12,25.12,0,0,0,297.83,26,20.79,20.79,0,0,0,290.72,29.77Z"/><path class="cls-25" d="M267.59,27.54c-.37.92-.8,2.35-.18,3.26a2.24,2.24,0,0,0,1.41.85l2.05.48a12.22,12.22,0,0,0-.24-4.55l-.76-3.74A18.44,18.44,0,0,0,267.59,27.54Z"/><path class="cls-26" d="M322.29,13.69c-1.42,1.76-3,3.84-3,6A6.48,6.48,0,0,1,321.07,17,9.36,9.36,0,0,1,323,15.56,14.57,14.57,0,0,0,322.29,13.69Z"/><path class="cls-27" d="M300,43.88c0,.9-.34,2.07-2.5,2.43s-4.29-.07-4.94-1C294.93,43.73,297.3,43.91,300,43.88Z"/><path class="cls-28" d="M324.45,15.18c1.75,0,2.63.49,3.08,1.15-.52,2.36-5.31,1.86-8.13,4.25h0C319.13,18.55,322.72,15.23,324.45,15.18Z"/><path class="cls-5" d="M298,42a1.86,1.86,0,1,1-1.38,1.95A1.7,1.7,0,0,1,298,42Zm-1,.94,2,.67.4-.56a1.35,1.35,0,0,0-1.31-.93A1.29,1.29,0,0,0,297,42.93Z"/><path class="cls-5" d="M300.11,26.79a2.49,2.49,0,0,1,2.44,2.52,2.28,2.28,0,1,1-4.48.35,2.52,2.52,0,0,1,2-2.87Zm-1.52,1.38,2.88,1,.59-.82A2,2,0,0,0,300.13,27,1.89,1.89,0,0,0,298.59,28.17Z"/><path class="cls-5" d="M295.59,28.74a1.93,1.93,0,0,1,1.83,2,1.77,1.77,0,1,1-3.47.16,1.94,1.94,0,0,1,1.64-2.17Zm-1.21,1,2.21.83.48-.62a1.54,1.54,0,0,0-1.46-1.1A1.46,1.46,0,0,0,294.38,29.77Z"/><path class="cls-5" d="M270.84,28.78l-.15,0a2.09,2.09,0,0,1-2.09-2.07A2.2,2.2,0,0,1,270,24.34l0,.15a1.65,1.65,0,0,0-1,1l1.27.41.35,1.71C270.71,28,270.78,28.37,270.84,28.78Z"/><path class="cls-2" d="M170.45,32.55a3,3,0,0,0-1.68-.48,2.47,2.47,0,0,0,0,4.93,3.53,3.53,0,0,0,1.77-.45l-.21.87a3.45,3.45,0,0,1-1.62.34,3.23,3.23,0,1,1,0-6.46,3.79,3.79,0,0,1,1.89.48Z"/><path class="cls-2" d="M173.25,37.84a1.49,1.49,0,0,1-1-1.56V27.91h.84v8.28a1,1,0,0,0,.77,1.06Z"/><path class="cls-2" d="M176,30.24c-.2,0-.56-.44-.56-.66s.36-.67.56-.67.57.44.57.67S176.22,30.24,176,30.24Zm-.43,7.39V31.45h.86v6.19Z"/><path class="cls-2" d="M183,32.55a3.05,3.05,0,0,0-1.68-.48,2.47,2.47,0,0,0,0,4.93,3.54,3.54,0,0,0,1.77-.45l-.21.87a3.47,3.47,0,0,1-1.63.34,3.23,3.23,0,1,1,0-6.46,3.78,3.78,0,0,1,1.89.48Z"/><path class="cls-2" d="M188.26,37.63l-2.87-3v3h-.84V27.91h.84V34.4l2.8-3h1l-2.85,3,3,3.16Z"/><path class="cls-2" d="M191,30.24c-.2,0-.56-.44-.56-.66s.36-.67.56-.67.57.44.57.67S191.17,30.24,191,30.24Zm-.43,7.39V31.45h.85v6.19Z"/><path class="cls-2" d="M197.53,37.63V33.55a1.47,1.47,0,0,0-1.67-1.49,1.54,1.54,0,0,0-1.72,1.49v4.09h-.84V31.45h.76l0,.75a2.19,2.19,0,0,1,2-.89,2.12,2.12,0,0,1,2.31,2.16v4.17Z"/><path class="cls-2" d="M199.67,30.78l-.37-.05a3.6,3.6,0,0,0,.73-1.52.86.86,0,0,1-.5-.6c0-.27.41-.77.63-.77s.63.48.63.77A4.26,4.26,0,0,1,199.67,30.78Z"/><path class="cls-2" d="M207.63,40.79c-1.6,0-2.68-.92-2.68-2.13a1.92,1.92,0,0,1,1.43-1.89l-.72-.67a1.21,1.21,0,0,1,.84-1,2,2,0,0,1-1.11-1.76,2.06,2.06,0,0,1,2.21-2,2.76,2.76,0,0,1,.76.11,2.41,2.41,0,0,0,.75.1,2,2,0,0,0,.92-.22l.17.71a2.05,2.05,0,0,1-.83.19,1.7,1.7,0,0,1,.44,1.16,2.08,2.08,0,0,1-2.21,2.06c-.67,0-1,.22-1,.48a1.09,1.09,0,0,0,.55.44l1.56.55c1,.35,1.61.92,1.61,1.94S209.2,40.79,207.63,40.79Zm.79-3.17-1.21-.38a1.43,1.43,0,0,0-1.49,1.42c0,.73.69,1.42,1.91,1.42s1.87-.64,1.87-1.26S209.09,37.84,208.42,37.62Zm-.8-5.59A1.33,1.33,0,1,0,209,33.36,1.37,1.37,0,0,0,207.62,32Z"/><path class="cls-2" d="M214.6,32.1c-1.15,0-2.13.82-2.13,2.5v3h-.84V31.45h.8l0,1.19a2.07,2.07,0,0,1,2.09-1.27l.17.74Z"/><path class="cls-2" d="M220.61,34l-.51.5h-4a2.35,2.35,0,0,0,2.4,2.46,3,3,0,0,0,1.89-.61l-.24,1a3.28,3.28,0,0,1-1.75.42,3.15,3.15,0,0,1-3.19-3.22,3.07,3.07,0,0,1,2.92-3.24,2.36,2.36,0,0,1,2.53,2.31A2.22,2.22,0,0,1,220.61,34Zm-2.47-2a2.19,2.19,0,0,0-2,1.78h3.65a.73.73,0,0,0,0-.18A1.61,1.61,0,0,0,218.15,32.06Z"/><path class="cls-2" d="M226.16,37.77a1.2,1.2,0,0,1-.91-.94,2,2,0,0,1-1.76.94A1.83,1.83,0,0,1,221.56,36,1.93,1.93,0,0,1,223.49,34l1.61-.16v-.59c0-.75-.52-1.23-1.43-1.23a3,3,0,0,0-1.6.46l-.17-.72a3.22,3.22,0,0,1,1.81-.49A2,2,0,0,1,226,33.37V36.2a.94.94,0,0,0,.75,1ZM225.1,34.6l-1.48.14A1.23,1.23,0,0,0,222.37,36,1.1,1.1,0,0,0,223.52,37a1.64,1.64,0,0,0,1.59-1.6Z"/><path class="cls-2" d="M231,32.15h-2v3.94a.83.83,0,0,0,.89.89,1.66,1.66,0,0,0,.69-.12l-.2.81a1.9,1.9,0,0,1-.56.07,1.56,1.56,0,0,1-1.67-1.67V32.15h-1.25v-.71h1.25V30.11l.84-.45v1.79h2.16Z"/><path class="cls-2" d="M240,37.63l0-.52a2.54,2.54,0,0,1-1.87.66,3.23,3.23,0,0,1,.13-6.46,2.81,2.81,0,0,1,1.65.51V27.91h.85v9.73Zm-.11-4.91A2.42,2.42,0,1,0,238.26,37a2.21,2.21,0,0,0,1.65-.67Z"/><path class="cls-2" d="M247.58,34l-.51.5h-4a2.35,2.35,0,0,0,2.4,2.46,3,3,0,0,0,1.89-.61l-.24,1a3.27,3.27,0,0,1-1.75.42,3.15,3.15,0,0,1-3.19-3.22,3.07,3.07,0,0,1,2.92-3.24,2.36,2.36,0,0,1,2.53,2.31A2.22,2.22,0,0,1,247.58,34Zm-2.47-2a2.19,2.19,0,0,0-2,1.78h3.65a.85.85,0,0,0,0-.18A1.61,1.61,0,0,0,245.11,32.06Z"/><path class="cls-2" d="M253.12,37.77a1.21,1.21,0,0,1-.91-.94,2,2,0,0,1-1.76.94A1.83,1.83,0,0,1,248.52,36,1.93,1.93,0,0,1,250.46,34l1.61-.16v-.59c0-.75-.52-1.23-1.43-1.23a3,3,0,0,0-1.6.46l-.17-.72a3.23,3.23,0,0,1,1.81-.49,2,2,0,0,1,2.24,2.06V36.2a.94.94,0,0,0,.75,1Zm-1.05-3.17-1.48.14A1.23,1.23,0,0,0,249.34,36,1.1,1.1,0,0,0,250.48,37a1.63,1.63,0,0,0,1.59-1.6Z"/><path class="cls-2" d="M256.13,37.84a1.49,1.49,0,0,1-1-1.56V27.91h.84v8.28a1,1,0,0,0,.77,1.06Z"/><path class="cls-2" d="M259.71,37.77a2.77,2.77,0,0,1-1.69-.51l-.23-1a2.87,2.87,0,0,0,1.93.77c.68,0,1.21-.37,1.21-1s-.44-.94-1.12-1.19c-1.12-.41-1.76-1-1.76-1.93a1.69,1.69,0,0,1,1.87-1.64,2.88,2.88,0,0,1,1.48.4l-.16.71a2.48,2.48,0,0,0-1.33-.38.92.92,0,0,0-1,.89c0,.55.39.85,1.05,1.09,1.16.42,1.84,1,1.84,2S261,37.77,259.71,37.77Z"/><path class="cls-2" d="M223.42,51.27c-15.89,9-35.33,9.31-49.54.73-10.37-6.26-16.21-15.86-16.39-27.52l0-18.57h-4.07l0,19.05h0c.06,13.19,6.74,23.64,18.37,30.66a49.23,49.23,0,0,0,25.47,6.81A57.28,57.28,0,0,0,225.41,55c29-16.49,53.44-2.13,53.68-2l1-1.81,1-1.81C280.11,48.7,254.6,33.57,223.42,51.27Z"/></svg>