<?xml version="1.0" encoding="utf-8"?>
<!-- Generator: Adobe Illustrator 20.1.0, SVG Export Plug-In . SVG Version: 6.00 Build 0)  -->
<svg version="1.1" id="Layer_1" xmlns="http://www.w3.org/2000/svg" xmlns:xlink="http://www.w3.org/1999/xlink" x="0px" y="0px"
	 viewBox="0 0 169 134.7" style="enable-background:new 0 0 169 134.7;" xml:space="preserve">
<style type="text/css">
	.st0{fill:#9A1E28;}
</style>
<g>
	<g>
		<polygon class="st0" points="70.7,42.1 58.5,21 70.7,0 95,0 107.1,21 95,42.1 		"/>
		<polygon class="st0" points="70.7,134.7 58.5,113.7 70.7,92.7 95,92.7 107.1,113.7 95,134.7 		"/>
		<polygon class="st0" points="110.7,111.6 98.6,90.5 110.7,69.5 135,69.5 147.2,90.5 135,111.6 		"/>
		<polygon class="st0" points="30.2,111.6 18,90.5 30.2,69.5 54.5,69.5 66.6,90.5 54.5,111.6 		"/>
		<polygon class="st0" points="110.7,64.7 98.6,43.7 110.7,22.6 135,22.6 147.2,43.7 135,64.7 		"/>
		<polygon class="st0" points="30.2,64.7 18,43.7 30.2,22.6 54.5,22.6 66.6,43.7 54.5,64.7 		"/>
	</g>
</g>
</svg>
