<svg id="Capa_1" data-name="Capa 1" xmlns="http://www.w3.org/2000/svg" viewBox="0 0 55 55"><defs><style>.cls-1{fill:#686868;}</style></defs><title>Artboard 1</title><path class="cls-1" d="M55,27.5A27.5,27.5,0,1,0,8.93,47.76l0,0,.89.75.18.14c.47.39,1,.77,1.47,1.13l.49.35q.8.55,1.64,1l.37.21c.61.35,1.24.68,1.88,1l.14.06a27.25,27.25,0,0,0,6.65,2.1l.18,0c.72.13,1.46.22,2.2.29l.27,0c.74.06,1.48.1,2.24.1s1.49,0,2.22-.1l.28,0q1.1-.1,2.18-.29l.19,0a27.25,27.25,0,0,0,6.56-2.06l.23-.1q.93-.44,1.81-.94l.44-.25c.54-.32,1.07-.65,1.58-1l.55-.39c.44-.32.87-.64,1.29-1l.28-.22.92-.76,0,0A27.43,27.43,0,0,0,55,27.5Zm-53,0A25.5,25.5,0,1,1,44.41,46.56a7.49,7.49,0,0,0-.89-.54l-8.47-4.23a2.22,2.22,0,0,1-1.23-2v-3c.2-.24.4-.52.62-.82a20.38,20.38,0,0,0,2.62-5.12,3.63,3.63,0,0,0,2.08-3.29V24.07a3.64,3.64,0,0,0-.89-2.37V17a8.06,8.06,0,0,0-1.88-5.86C34.52,9.06,31.54,8,27.5,8s-7,1.07-8.87,3.17A8.07,8.07,0,0,0,16.75,17V21.7a3.64,3.64,0,0,0-.89,2.37v3.55a3.64,3.64,0,0,0,1.34,2.82,18.79,18.79,0,0,0,3.09,6.39v2.89a2.23,2.23,0,0,1-1.16,2L11.23,46a7.23,7.23,0,0,0-.75.48A25.44,25.44,0,0,1,2,27.5Z"/></svg>